<svg width="51" height="50" viewBox="0 0 51 50" fill="none" xmlns="http://www.w3.org/2000/svg">
<path d="M25 9.75C27.8275 9.75 30.1188 12.1 30.1188 15C30.1188 17.9 27.8275 20.25 25 20.25C22.1725 20.25 19.8812 17.9 19.8812 15C19.8812 12.1 22.1725 9.75 25 9.75ZM25 32.25C32.2394 32.25 39.8688 35.9 39.8688 37.5V40.25H10.1313V37.5C10.1313 35.9 17.7606 32.25 25 32.25ZM25 5C19.6131 5 15.25 9.475 15.25 15C15.25 20.525 19.6131 25 25 25C30.3869 25 34.75 20.525 34.75 15C34.75 9.475 30.3869 5 25 5ZM25 27.5C18.4919 27.5 5.5 30.85 5.5 37.5V45H44.5V37.5C44.5 30.85 31.5081 27.5 25 27.5Z" fill="currentColor"/>
</svg>
