<svg width="50" height="50" viewBox="0 0 50 50" fill="none" xmlns="http://www.w3.org/2000/svg">
<path d="M17.0666 37C14.9277 37 13.1971 38.8 13.1971 41C13.1971 43.2 14.9277 45 17.0666 45C19.2055 45 20.9555 43.2 20.9555 41C20.9555 38.8 19.2055 37 17.0666 37ZM36.511 37C34.3721 37 32.6416 38.8 32.6416 41C32.6416 43.2 34.3721 45 36.511 45C38.6499 45 40.3999 43.2 40.3999 41C40.3999 38.8 38.6499 37 36.511 37ZM17.3971 30.5L17.4555 30.26L19.2055 27H33.6916C35.1499 27 36.4332 26.18 37.0943 24.94L44.5999 10.92L41.2166 9H41.1971L39.0582 13L33.6916 23H20.0416L19.7888 22.46L15.4332 13L13.586 9L11.7582 5H5.3999V9H9.28879L16.2888 24.18L13.6638 29.08C13.3527 29.64 13.1777 30.3 13.1777 31C13.1777 33.2 14.9277 35 17.0666 35H40.3999V31H17.8832C17.6305 31 17.3971 30.78 17.3971 30.5Z" fill="currentColor"/>
</svg>
