<svg width="51" height="50" viewBox="0 0 51 50" fill="none" xmlns="http://www.w3.org/2000/svg">
<path d="M41.5 13.4211H37.14C37.36 12.7684 37.5 12.0526 37.5 11.3158C37.5 7.82105 34.82 5 31.5 5C29.4 5 27.58 6.13684 26.5 7.84211L25.5 9.25263L24.5 7.82105C23.42 6.13684 21.6 5 19.5 5C16.18 5 13.5 7.82105 13.5 11.3158C13.5 12.0526 13.64 12.7684 13.86 13.4211H9.5C7.28 13.4211 5.52 15.2947 5.52 17.6316L5.5 40.7895C5.5 43.1263 7.28 45 9.5 45H41.5C43.72 45 45.5 43.1263 45.5 40.7895V17.6316C45.5 15.2947 43.72 13.4211 41.5 13.4211ZM31.5 9.21053C32.6 9.21053 33.5 10.1579 33.5 11.3158C33.5 12.4737 32.6 13.4211 31.5 13.4211C30.4 13.4211 29.5 12.4737 29.5 11.3158C29.5 10.1579 30.4 9.21053 31.5 9.21053ZM19.5 9.21053C20.6 9.21053 21.5 10.1579 21.5 11.3158C21.5 12.4737 20.6 13.4211 19.5 13.4211C18.4 13.4211 17.5 12.4737 17.5 11.3158C17.5 10.1579 18.4 9.21053 19.5 9.21053ZM41.5 40.7895H9.5V36.5789H41.5V40.7895ZM41.5 30.2632H9.5V17.6316H19.66L15.5 23.5895L18.74 26.0526L23.5 19.2316L25.5 16.3684L27.5 19.2316L32.26 26.0526L35.5 23.5895L31.34 17.6316H41.5V30.2632Z" fill="currentColor"/>
</svg>
