<svg width="51" height="50" viewBox="0 0 51 50" fill="none" xmlns="http://www.w3.org/2000/svg">
<path d="M23.05 37H26.95V33H23.05V37ZM25 5C14.236 5 5.5 13.96 5.5 25C5.5 36.04 14.236 45 25 45C35.764 45 44.5 36.04 44.5 25C44.5 13.96 35.764 5 25 5ZM25 41C16.4005 41 9.4 33.82 9.4 25C9.4 16.18 16.4005 9 25 9C33.5995 9 40.6 16.18 40.6 25C40.6 33.82 33.5995 41 25 41ZM25 13C20.6905 13 17.2 16.58 17.2 21H21.1C21.1 18.8 22.855 17 25 17C27.145 17 28.9 18.8 28.9 21C28.9 25 23.05 24.5 23.05 31H26.95C26.95 26.5 32.8 26 32.8 21C32.8 16.58 29.3095 13 25 13Z" fill="currentColor"/>
</svg>
