<svg width="51" height="50" viewBox="0 0 51 50" fill="none" xmlns="http://www.w3.org/2000/svg">
<path d="M39.4583 25.0264C39.4583 28.8714 39.3695 32.7164 39.4987 36.5558C39.5552 38.2597 37.7872 40.0193 36.1914 39.9998C28.7292 39.908 21.2643 39.9609 13.7994 39.9581C11.8322 39.9581 10.5405 38.6077 10.5405 36.5558C10.5378 28.8324 10.589 21.1091 10.5002 13.3885C10.4813 11.7458 12.2224 9.98341 13.7536 10.0001C21.2508 10.0864 28.748 10.0864 36.2452 10.0001C37.7737 9.98341 39.5498 11.7402 39.496 13.3913C39.3749 17.2669 39.4583 21.148 39.4583 25.0264ZM36.2022 13.4358C28.6861 13.4358 21.2454 13.4358 13.829 13.4358C13.829 21.2065 13.829 28.902 13.829 36.5836C21.3235 36.5836 28.7399 36.5836 36.2022 36.5836C36.2022 28.8575 36.2022 21.1842 36.2022 13.4358Z" fill="currentColor"/>
<path d="M17.0447 23.3754C22.3676 23.3754 27.6366 23.3754 32.9676 23.3754C32.9676 24.4612 32.9676 25.5081 32.9676 26.6079C27.6635 26.6079 22.3945 26.6079 17.0447 26.6079C17.0447 25.5777 17.0447 24.5281 17.0447 23.3754Z" fill="currentColor"/>
</svg>
