<svg width="51" height="50" viewBox="0 0 51 50" fill="none" xmlns="http://www.w3.org/2000/svg">
<path d="M24.9438 39.9632C21.193 39.9632 17.4448 39.9688 13.694 39.9604C11.8628 39.9577 10.5376 38.5734 10.5376 36.6577C10.5322 28.8644 10.575 21.0712 10.5001 13.2779C10.4867 11.7498 12.2162 9.98624 13.6512 10.0001C21.217 10.0748 28.7856 10.0748 36.3515 10.0001C37.7757 9.98624 39.5106 11.7442 39.4972 13.2835C39.4222 21.0767 39.4196 28.8727 39.4999 36.666C39.516 38.2329 37.7972 40.0435 36.2952 39.9992C32.5123 39.8885 28.7267 39.9632 24.9438 39.9632ZM36.1774 36.594C36.1774 28.8091 36.1774 21.1099 36.1774 13.4413C28.6624 13.4413 21.2224 13.4413 13.8011 13.4413C13.8011 21.1985 13.8011 28.8755 13.8011 36.594C21.2733 36.594 28.6892 36.594 36.1774 36.594Z" fill="currentColor"/>
<path d="M23.4284 26.6386C21.1876 26.6386 19.1235 26.6386 17.0138 26.6386C17.0138 25.5395 17.0138 24.5152 17.0138 23.3746C19.0967 23.3746 21.1849 23.3746 23.3776 23.3746C23.3776 21.1044 23.3776 18.945 23.3776 16.7385C24.4752 16.7385 25.4658 16.7385 26.5662 16.7385C26.5662 18.8924 26.5662 21.0518 26.5662 23.3247C28.7588 23.3247 30.8471 23.3247 32.9808 23.3247C32.9808 24.4626 32.9808 25.4869 32.9808 26.6247C30.8979 26.6247 28.8097 26.6247 26.617 26.6247C26.617 28.8949 26.617 31.0543 26.617 33.2607C25.5194 33.2607 24.5288 33.2607 23.4284 33.2607C23.4284 31.1041 23.4284 28.9447 23.4284 26.6386Z" fill="currentColor"/>
</svg>
