<svg width="51" height="50" viewBox="0 0 51 50" fill="none" xmlns="http://www.w3.org/2000/svg">
<path d="M31.2261 28.8679H29.9162L29.452 28.4048C31.0769 26.4494 32.0552 23.9108 32.0552 21.1492C32.0552 14.9914 27.2301 10 21.2776 10C15.325 10 10.5 14.9914 10.5 21.1492C10.5 27.307 15.325 32.2985 21.2776 32.2985C23.9471 32.2985 26.4011 31.2864 28.2913 29.6055L28.739 30.0858V31.4408L37.0294 40L39.5 37.4443L31.2261 28.8679ZM21.2776 28.8679C17.1489 28.8679 13.8162 25.4202 13.8162 21.1492C13.8162 16.8782 17.1489 13.4305 21.2776 13.4305C25.4062 13.4305 28.739 16.8782 28.739 21.1492C28.739 25.4202 25.4062 28.8679 21.2776 28.8679Z" fill="currentColor"/>
</svg>
