<svg width="51" height="50" viewBox="0 0 51 50" fill="none" xmlns="http://www.w3.org/2000/svg">
<path d="M24.9867 47.9829C18.7335 47.9829 12.4803 47.9688 6.22711 47.9971C5.18397 48.0019 4.65579 47.2941 4.65831 46.3226C4.67908 39.0328 4.66775 31.7424 4.67593 24.4527C4.67656 24.1559 4.59661 24.0119 4.3448 23.8645C1.93178 22.4516 0.626115 20.268 0.501466 17.3096C0.486987 16.9709 0.580788 16.5842 0.736913 16.2874C3.09453 11.7938 5.47293 7.31368 7.83873 2.82612C8.13902 2.25622 8.56396 2 9.17147 2C19.7162 2.00541 30.2604 2.00541 40.8051 2C41.4151 2 41.8363 2.26636 42.1347 2.83288C44.5093 7.32855 46.8865 11.8222 49.2768 16.3084C49.5456 16.8127 49.5204 17.3299 49.4619 17.8505C49.1578 20.5607 47.8811 22.5773 45.6444 23.874C45.3869 24.0234 45.2925 24.1708 45.2931 24.4838C45.3019 31.7059 45.3 38.9287 45.2988 46.1509C45.2988 46.3645 45.3038 46.5808 45.2786 46.7918C45.1968 47.4658 44.6925 47.9525 44.0611 47.9809C43.9459 47.9863 43.8301 47.9836 43.7148 47.9836C37.4724 47.9829 31.2292 47.9829 24.9867 47.9829ZM13.3787 21.5187C11.8489 23.6887 9.81359 24.7609 7.26774 24.7325C7.26774 31.5666 7.26774 38.3757 7.26774 45.2037C8.61495 45.2037 9.94265 45.2037 11.3113 45.2037C11.3113 45.0483 11.3113 44.9056 11.3113 44.7623C11.3113 40.3342 11.3056 35.9068 11.3138 31.4788C11.3182 28.9057 13.1514 26.95 15.5462 26.9419C16.6793 26.9378 17.8125 26.9385 18.9457 26.9425C19.1654 26.9432 19.3882 26.9493 19.6042 26.9871C21.71 27.3542 23.1711 29.1931 23.173 31.4862C23.1768 35.9028 23.1743 40.3194 23.1743 44.7359C23.1743 44.8887 23.1743 45.0415 23.1743 45.1902C29.712 45.1902 36.2007 45.1902 42.6944 45.1902C42.6944 38.3575 42.6944 31.5491 42.6944 24.7224C41.475 24.7589 40.3361 24.5061 39.2621 23.9375C38.19 23.3703 37.315 22.5503 36.6011 21.5018C35.1248 23.5779 33.2142 24.7163 30.7917 24.7143C28.3736 24.7123 26.4649 23.5711 25.0075 21.5207C22.1154 25.8135 16.1908 25.7493 13.3787 21.5187ZM45.7256 15.3038C45.7048 15.2281 45.7017 15.1929 45.6872 15.1652C43.8899 11.7695 42.09 8.37506 40.299 4.97526C40.1982 4.78326 40.0717 4.78123 39.9112 4.78123C29.9676 4.78258 20.0241 4.78326 10.0805 4.77785C9.86899 4.77785 9.74434 4.83734 9.63544 5.04354C7.87776 8.38588 6.11191 11.7235 4.34983 15.0631C4.31269 15.1334 4.29191 15.2132 4.25729 15.3038C18.0964 15.3038 31.8972 15.3038 45.7256 15.3038ZM13.9012 45.1923C16.1587 45.1923 18.3665 45.1923 20.5869 45.1923C20.5925 45.0956 20.6014 45.0185 20.6014 44.9414C20.602 40.4593 20.6045 35.9771 20.6007 31.495C20.6001 30.4363 19.9233 29.717 18.9369 29.7123C17.8566 29.7069 16.7769 29.7102 15.6966 29.7109C14.5408 29.7116 13.9024 30.3917 13.9024 31.6282C13.9018 36.0089 13.9018 40.3897 13.9018 44.7704C13.9012 44.9036 13.9012 45.0361 13.9012 45.1923ZM38.0232 18.0986C38.1755 20.2085 40.389 22.0446 42.6245 21.9493C44.6453 21.8634 46.7838 19.886 46.7757 18.0986C43.8653 18.0986 40.955 18.0986 38.0232 18.0986ZM3.19841 18.0898C3.3602 20.1848 5.5277 22.0155 7.72982 21.9432C9.79848 21.8756 11.932 19.9387 11.9565 18.0898C9.04619 18.0898 6.13583 18.0898 3.19841 18.0898ZM14.8002 18.0877C15.0073 20.2294 17.2239 22.0649 19.4134 21.9405C21.4701 21.8242 23.5709 19.8765 23.5558 18.0877C20.6461 18.0877 17.7363 18.0877 14.8002 18.0877ZM35.1815 18.0965C32.2585 18.0965 29.3381 18.0965 26.4158 18.0965C26.6021 20.1409 28.6613 21.9452 30.7923 21.9452C32.9271 21.9452 34.9926 20.1443 35.1815 18.0965Z" fill="currentColor"/>
<path d="M31.9658 26.9405C33.0461 26.9405 34.1257 26.9378 35.206 26.9412C37.1752 26.9473 38.6483 28.5251 38.6521 30.6344C38.6553 32.4137 38.6553 34.1924 38.6521 35.9717C38.6483 38.081 37.1727 39.6643 35.2066 39.6676C33.036 39.6717 30.8653 39.6724 28.6953 39.667C26.7268 39.6622 25.253 38.081 25.2492 35.9724C25.2461 34.1931 25.2461 32.4144 25.2492 30.6351C25.253 28.5251 26.7255 26.9473 28.6953 26.9405C29.7844 26.9378 30.8748 26.9405 31.9658 26.9405ZM31.9456 36.8993C33.0152 36.8993 34.0842 36.9013 35.1538 36.8986C35.7525 36.8972 36.0716 36.5612 36.0729 35.9258C36.0754 34.1809 36.0754 32.4354 36.0729 30.6905C36.0723 30.0469 35.7619 29.7129 35.1619 29.7123C33.0234 29.7102 30.8842 29.7102 28.7457 29.7123C28.1294 29.7129 27.8272 30.0442 27.8266 30.7155C27.8247 32.4381 27.8247 34.1606 27.8266 35.8832C27.8272 36.568 28.1332 36.8979 28.769 36.8993C29.8279 36.9013 30.8868 36.8999 31.9456 36.8993Z" fill="currentColor"/>
</svg>
