<svg width="51" height="50" viewBox="0 0 51 50" fill="none" xmlns="http://www.w3.org/2000/svg">
<path d="M47.5001 25.5209C47.5001 23.8959 47.3543 22.3334 47.0835 20.8334H25.5001V29.7084H37.8335C37.2918 32.5625 35.6668 34.9792 33.2293 36.6042V42.375H40.6668C45.0001 38.375 47.5001 32.5 47.5001 25.5209Z" fill="#4285F4"/>
<path d="M25.5001 47.9167C31.6876 47.9167 36.8751 45.875 40.6668 42.375L33.2293 36.6042C31.1876 37.9792 28.5834 38.8125 25.5001 38.8125C19.5417 38.8125 14.4792 34.7917 12.6667 29.375H5.04175V35.2917C8.81258 42.7708 16.5417 47.9167 25.5001 47.9167Z" fill="#34A853"/>
<path d="M12.6668 29.3541C12.2085 27.9791 11.9377 26.5208 11.9377 25C11.9377 23.4791 12.2085 22.0208 12.6668 20.6458V14.7291H5.04183C3.47933 17.8125 2.5835 21.2916 2.5835 25C2.5835 28.7083 3.47933 32.1875 5.04183 35.2708L10.9793 30.6458L12.6668 29.3541Z" fill="#FBBC05"/>
<path d="M25.5001 11.2084C28.8751 11.2084 31.8751 12.375 34.2709 14.625L40.8334 8.06254C36.8542 4.35421 31.6876 2.08337 25.5001 2.08337C16.5417 2.08337 8.81266 7.22913 5.04183 14.7291L12.6668 20.6458C14.4793 15.2291 19.5417 11.2084 25.5001 11.2084Z" fill="#EA4335"/>
</svg>
