<svg width="51" height="50" viewBox="0 0 51 50" fill="none" xmlns="http://www.w3.org/2000/svg">
<path d="M18.8868 10.0008C18.5436 10.0008 18.2116 10.1232 17.9507 10.3462C17.6898 10.5691 17.517 10.8778 17.4634 11.2168L12.9243 40L12.923 40.0115L12.9256 40L15.0991 26.2168C15.2096 25.5163 15.8128 25.0008 16.5217 25.0008H23.4519C30.4264 25.0008 36.3461 19.9123 37.4272 13.0171C37.5096 12.4932 37.5537 11.9743 37.5637 11.4622V11.4614H37.5629C35.7904 10.5315 33.7091 10.0008 31.4285 10.0008H18.8868Z" fill="#001C64"/>
<path d="M37.5632 11.4617C37.5535 11.9738 37.5088 12.4932 37.4267 13.0171C36.3456 19.9123 30.4259 25.0008 23.4514 25.0008H16.5212C15.8122 25.0008 15.2091 25.5163 15.0986 26.2168L11.5611 48.6475C11.5348 48.8145 11.545 48.9853 11.591 49.148C11.6371 49.3107 11.7178 49.4615 11.8277 49.59C11.9375 49.7186 12.0739 49.8218 12.2275 49.8925C12.3811 49.9633 12.5481 50 12.7172 50H20.2395C20.5827 50 20.9147 49.8775 21.1756 49.6546C21.4365 49.4317 21.6093 49.123 21.6629 48.784L23.6445 36.2168C23.7555 35.5163 24.359 35 25.0679 35H29.4973C36.4718 35 42.3907 29.9118 43.4718 23.0171C44.2393 18.1223 41.776 13.6696 37.5632 11.4617Z" fill="#0070E0"/>
<path d="M10.3403 0C9.99703 1.06949e-05 9.665 0.122594 9.40405 0.345674C9.1431 0.568753 8.97037 0.877675 8.91697 1.2168L3.01434 38.6467C2.98794 38.8138 2.99808 38.9846 3.04404 39.1474C3.09 39.3103 3.1707 39.4612 3.28059 39.5898C3.39047 39.7184 3.52694 39.8217 3.68057 39.8925C3.8342 39.9633 4.00135 40 4.17052 40H12.9241L17.4632 11.2168C17.5167 10.8778 17.6895 10.5691 17.9505 10.3462C18.2114 10.1232 18.5433 10.0008 18.8865 10.0008H31.4277C33.7088 10.0008 35.7902 10.5323 37.5629 11.4609C37.6836 5.18347 32.5038 0 25.3813 0H10.3403Z" fill="#003087"/>
</svg>
