<?xml version="1.0" encoding="utf-8"?>
<!-- Generator: Adobe Illustrator 28.1.0, SVG Export Plug-In . SVG Version: 6.00 Build 0)  -->
<svg version="1.1" id="Calque_1" xmlns="http://www.w3.org/2000/svg" xmlns:xlink="http://www.w3.org/1999/xlink" x="0px" y="0px"
	 viewBox="0 0 164.64 135.64" style="enable-background:new 0 0 164.64 135.64;" xml:space="preserve">
<style type="text/css">
	.st0{fill:#FFFFFF;}
</style>
<path d="M160.47,75.32c1.53-1.83,3.28-3.9,3.99-6.37c-0.01,0.01-0.01,0.01-0.02,0.02c-0.36-8.66-2.34-11.69-10.15-15.59
	c-9-4.5-18.75-6.04-28.58-6.59c-8.93-0.5-17.91-0.11-26.87-0.11h-3.41c10.01-4.14,20.09-7.53,30.03-11.29
	c8.82-3.34,17.51-7.05,26.22-10.7c3.61-1.51,4.07-4.66,3.61-8.09c-0.41-3.14-3.16-4.18-5.38-4.26c-8.12-0.3-16.27-0.38-24.38,0.08
	c-7.69,0.44-15.33,1.66-22.4,2.47c1.14-3.6,2.56-7.35,3.41-11.22c0.26-1.17-1.02-3.78-1.68-3.82c-1.56-0.08-3.69,0.57-4.67,1.71
	c-3.71,4.33-6.95,9.05-10.59,13.45c-1.16,1.4-2.86,2.7-4.56,3.24c-13.06,4.09-26.16,8.03-39.3,11.86c-2.27,0.66-2.97,1.76-2.71,3.93
	c0.32,2.65,3.11,4.37,6.24,3.5c4.47-1.23,8.88-2.67,13.32-4.04c5.79-1.78,11.57-3.57,18-5.56c-3.01,4.91-5.5,9-8.02,13.08
	c-3.09,5.01-5.87,10.38-12.82,10.84c-1.09,0.07-2.31,0.17-3.21,0.69c-1.14,0.66-2.86,1.82-2.82,2.68c0.08,1.61,0.89,3.59,2.08,4.61
	c1.17,1,3.19,1.01,4.92,1.48c-1.32,2.12-2.85,4.29-4.09,6.62c-3.04,5.72-6.09,11.45-8.89,17.29c-3.31,6.92-6.41,13.94-9.51,20.96
	c-1.63,3.69-2.98,7.51-4.61,11.2c-0.36,0.81-1.23,1.6-2.05,1.95c-5.48,2.31-10.85,5.47-16.57,6.39c-4.12,0.66-6.7,2.78-8.82,4.38
	c-1.78-0.75-2.83-1.2-3.87-1.64c-0.83,2.05-1.66,4.09-2.49,6.14c0.38,0.29,0.75,0.57,1.13,0.86c1.82-0.54,3.66-0.99,5.44-1.63
	c2.08-0.73,4.03-1.95,6.16-2.37c5.36-1.06,11-1.13,16.16-2.77c14.36-4.55,28.61-9.45,42.75-14.64
	c24.83-9.12,50.25-16.77,73.82-29.13c3.58-1.88,7.33-4.55,11.21-6.67 M160.19,77.14 M140.28,85.26
	c-19.33,8.2-38.92,15.83-58.59,23.18c-17.98,6.71-36.19,12.77-54.33,19.05c-2.64,0.91-5.4,1.49-8.15,2.03
	c-0.6,0.12-1.36-0.61-3.1-1.48c2.87-1.35,4.78-2.43,6.81-3.18c16.89-6.26,33.81-12.42,50.7-18.69c11.33-4.21,22.68-8.38,33.89-12.88
	c12.01-4.83,24-9.73,35.73-15.2c5.08-2.37,9.73-5.91,14.08-9.53c3.21-2.67,2.95-5.72-0.85-7.53c-5.77-2.75-11.87-5.43-18.11-6.45
	c-21.33-3.49-42.69-2.35-63.89,1.59c-1.48,0.27-3.19,1.57-3.98,2.88c-5.58,9.29-10.97,18.69-16.36,28.08
	c-4.46,7.77-8.85,15.57-13.26,23.37c-0.5,0.89-0.9,1.85-2.19,2.57c0.63-2.81,0.74-5.88,1.98-8.4c4.3-8.72,8.98-17.25,13.55-25.83
	c3.02-5.68,6.12-11.31,9.14-16.99c0.43-0.81,0.6-1.75,1-2.97c-2.43,0-4.46,0.33-6.29-0.13c-1.02-0.25-1.71-1.82-2.54-2.8
	c0.85-0.57,1.63-1.37,2.57-1.67c1.65-0.54,3.38-0.88,5.1-1.14c3.53-0.52,5.95-2.28,7.83-5.42c4.48-7.47,9.3-14.73,14.44-22.81
	c-6.69,1.88-12.65,3.46-18.55,5.23c-5.24,1.58-10.39,3.47-15.64,5.01c-2.29,0.67-4.93,1.61-6.69-1.84c0.85-0.47,1.61-1.07,2.47-1.32
	c13.12-3.91,26.29-7.7,39.37-11.73c1.83-0.57,3.62-2.05,4.88-3.57c3.57-4.31,6.8-8.91,10.32-13.28c0.61-0.77,1.94-0.96,2.93-1.42
	c0.18,1.16,0.87,2.57,0.45,3.45c-1.59,3.37-3.54,6.56-5.34,9.82c-0.34,0.62-0.67,1.25-1.37,2.58c4.91-0.73,9.15-1.63,13.44-1.94
	c11.53-0.83,23.07-1.43,34.61-2.02c1.31-0.07,2.87,0.21,3.93,0.91c1.41,0.93,3.31,2.37,3.41,3.71c0.11,1.38-1.36,3.62-2.71,4.26
	c-6.74,3.2-13.56,6.28-20.55,8.87c-16.13,5.97-32.38,11.63-48.42,18.31c4.82-0.38,9.64-0.87,14.46-1.13
	c17.33-0.95,34.64-1.27,51.43,4.12c3.5,1.12,6.93,2.9,9.96,5c5.66,3.92,6.54,11.11,1.27,15.4C153.36,78.01,147.04,82.4,140.28,85.26
	z M40.95,115.67c2.14-3.99,4.16-7.78,6.21-11.56c3.97-7.32,7.85-14.68,11.95-21.93c4.01-7.09,8.3-14.02,12.37-21.08
	c2.56-4.46,7.26-3.99,11.09-4.35c12.42-1.18,24.91-2.28,37.37-2.24c11.25,0.04,22.55,1.32,32.92,6.59c5.02,2.55,5.55,4.15,1.27,7.59
	c-3.81,3.07-8,5.86-12.41,7.94c-9.6,4.54-19.38,8.74-29.22,12.73c-8.8,3.57-17.81,6.64-26.69,10.03
	c-6.61,2.52-13.15,5.22-19.75,7.79c-7.38,2.87-14.78,5.69-22.2,8.45C43.1,115.91,42.16,115.67,40.95,115.67z"/>
<path class="st0" d="M98.28,17.85c4.91-0.73,9.15-1.63,13.44-1.94c11.53-0.83,23.07-1.43,34.61-2.02c1.31-0.07,2.87,0.21,3.93,0.91
	c1.41,0.93,3.31,2.37,3.41,3.71c0.11,1.38-1.36,3.62-2.71,4.26c-6.74,3.2-13.56,6.28-20.55,8.87
	c-16.13,5.97-32.38,11.63-48.42,18.31c4.82-0.38,9.63-0.87,14.46-1.13c17.33-0.95,34.64-1.27,51.43,4.12c3.5,1.12,6.93,2.9,9.96,5
	c5.66,3.92,6.54,11.11,1.27,15.4c-5.74,4.66-12.06,9.04-18.82,11.91c-19.33,8.2-38.92,15.83-58.59,23.18
	c-17.98,6.71-36.19,12.77-54.33,19.05c-2.64,0.91-5.4,1.49-8.15,2.03c-0.6,0.12-1.36-0.61-3.1-1.48c2.87-1.35,4.78-2.43,6.81-3.18
	c16.89-6.26,33.81-12.42,50.7-18.69c11.33-4.21,22.68-8.38,33.89-12.88c12.01-4.83,24-9.73,35.73-15.2
	c5.08-2.37,9.73-5.91,14.08-9.53c3.21-2.67,2.95-5.72-0.85-7.53c-5.77-2.75-11.87-5.43-18.11-6.45
	c-21.33-3.49-42.69-2.35-63.89,1.59c-1.48,0.27-3.19,1.57-3.98,2.88c-5.58,9.29-10.97,18.69-16.36,28.08
	c-4.46,7.77-8.85,15.57-13.26,23.37c-0.5,0.89-0.9,1.85-2.19,2.57c0.63-2.81,0.74-5.88,1.98-8.4c4.3-8.72,8.98-17.25,13.55-25.83
	c3.02-5.68,6.12-11.31,9.14-16.99c0.43-0.81,0.6-1.75,1-2.97c-2.43,0-4.46,0.33-6.29-0.13c-1.02-0.25-1.71-1.82-2.54-2.8
	c0.85-0.57,1.63-1.37,2.57-1.67c1.65-0.54,3.38-0.88,5.1-1.14c3.53-0.52,5.95-2.28,7.83-5.42c4.48-7.47,9.3-14.73,14.44-22.81
	c-6.69,1.88-12.65,3.46-18.55,5.23c-5.24,1.58-10.39,3.47-15.64,5.01c-2.29,0.67-4.93,1.61-6.69-1.84c0.85-0.47,1.61-1.07,2.47-1.32
	c13.12-3.91,26.29-7.7,39.37-11.73c1.83-0.57,3.62-2.05,4.88-3.57c3.57-4.31,6.8-8.91,10.32-13.28c0.62-0.77,1.94-0.96,2.93-1.42
	c0.18,1.16,0.87,2.57,0.45,3.45c-1.59,3.37-3.54,6.56-5.34,9.82C99.31,15.9,98.99,16.53,98.28,17.85z M77.12,47.62
	c12.56-5.14,24.15-9.98,35.82-14.64c11.84-4.73,24.21-8.18,36.02-14.56c-1.06-0.57-1.26-0.76-1.47-0.77
	c-17.16-0.88-34,1.63-50.76,4.9c-1.02,0.2-2.26,0.77-2.84,1.57C88.39,31.67,83.02,39.31,77.12,47.62z"/>
<path d="M77.12,47.62c5.9-8.31,11.27-15.95,16.77-23.5c0.58-0.8,1.82-1.37,2.84-1.57c16.76-3.27,33.6-5.77,50.76-4.9
	c0.21,0.01,0.41,0.21,1.47,0.77c-11.8,6.37-24.18,9.83-36.02,14.56C101.27,37.64,89.67,42.48,77.12,47.62z M141.59,19.88
	c-0.05-0.24-0.1-0.48-0.15-0.72c-2.17,0-4.37-0.23-6.51,0.04c-11.37,1.4-22.73,2.86-34.07,4.45c-1.84,0.26-4.21,0.76-5.25,2.03
	c-4.06,4.95-7.68,10.25-11.47,15.42c0.2,0.33,0.4,0.67,0.6,1C103.69,34.69,122.64,27.28,141.59,19.88z"/>
</svg>
