<?xml version="1.0" encoding="utf-8"?>
<!-- Generator: Adobe Illustrator 28.1.0, SVG Export Plug-In . SVG Version: 6.00 Build 0)  -->
<svg version="1.1" id="Calque_1" xmlns="http://www.w3.org/2000/svg" xmlns:xlink="http://www.w3.org/1999/xlink" x="0px" y="0px"
	 viewBox="0 0 308.75 140.31" style="enable-background:new 0 0 308.75 140.31;" xml:space="preserve">
<style type="text/css">
	.st0{fill:#FFFFFF;}
</style>
<g>
	<g>
		<path d="M60.88,66.15c-1.73-0.47-3.76-0.47-4.92-1.48c-1.19-1.02-2-3.01-2.08-4.61c-0.04-0.87,1.68-2.02,2.82-2.68
			c0.9-0.53,2.12-0.62,3.21-0.69c6.95-0.46,9.73-5.83,12.82-10.84c2.52-4.08,5.01-8.17,8.02-13.08c-6.43,1.99-12.22,3.78-18,5.56
			c-4.43,1.36-8.85,2.8-13.32,4.04c-3.14,0.87-5.92-0.86-6.24-3.5c-0.26-2.17,0.44-3.27,2.71-3.93c13.14-3.82,26.24-7.77,39.3-11.86
			c1.71-0.53,3.4-1.84,4.56-3.24c3.64-4.39,6.88-9.12,10.59-13.45c0.98-1.14,3.11-1.78,4.67-1.71c0.67,0.03,1.94,2.65,1.68,3.82
			c-0.85,3.87-2.27,7.62-3.41,11.22c7.07-0.81,14.72-2.03,22.4-2.47c8.11-0.46,16.26-0.39,24.38-0.08c2.23,0.08,4.97,1.12,5.38,4.26
			c0.45,3.43,0,6.58-3.61,8.09c-8.71,3.65-17.39,7.36-26.22,10.7c-9.94,3.76-20.02,7.14-30.03,11.29c1.14,0,2.27,0,3.41,0
			c8.96,0,17.94-0.39,26.87,0.11c9.84,0.55,19.59,2.09,28.58,6.59c7.81,3.9,9.79,6.93,10.15,15.59c2.84-2.07,5.51-4.25,8.41-6.05
			c2.69-1.66,5.6-2.79,8.08,0.59c0.23,0.31,0.89,0.33,1.36,0.41c4.73,0.88,5.64,2.59,3.76,7.05c-0.52,1.24-1.03,2.48-1.64,3.96
			c2.57,0.23,3.67-0.24,4.98-2.86c1.51-3,5-5.02,7.67-7.42c0.73-0.66,1.64-1.13,2.37-1.79c4.43-4.07,6.85-3.48,8.7,2.09
			c1.94,0.19,4.81-1.97,5.11,2.56c2.74-5.46,5.19-10.67,7.9-15.73c8.86-16.51,17.83-32.96,26.72-49.45
			c0.82-1.52,1.18-3.35,2.21-4.67c0.9-1.15,2.84-2.76,3.64-2.44c1.42,0.56,3.22,2.41,3.25,3.75c0.06,2.6-0.47,5.51-1.68,7.79
			c-6.68,12.51-13.65,24.86-20.49,37.27c-3.37,6.12-6.69,12.26-10.15,18.59c3.15-0.9,5.83-2.13,8.57-2.34
			c4.19-0.31,5.6,1.9,4.04,5.92c-1.5,3.89-3.3,7.66-5.02,11.62c2.19,0.67,5.26-0.49,4.75,3.38c-0.38,2.89-2.59,5.15-5.64,5.22
			c-6.53,0.17-8.43-1.87-7.9-8.44c0.05-0.61-0.06-1.23-0.11-2.16c-4.6,3.29-8.52,6.69-10.71,11.91c-1.16,2.78-3.01,5.31-4.84,7.73
			c-0.67,0.89-2.17,1.15-3.3,1.7c-0.31-1.31-1.19-2.81-0.83-3.89c2.26-6.74,4.8-13.39,7.25-20.07c0.24-0.66,0.46-1.33,0.69-1.99
			c-0.31-0.22-0.61-0.44-0.92-0.67c-1.32,1.61-2.98,3.04-3.9,4.85c-3.08,6.04-6.87,11.41-13.62,13.45
			c-1.88,0.57-4.79-0.02-6.31-1.24c-1.27-1.01-1.18-3.71-1.8-6.03c-3.39,0.73-6.54-0.94-8.27-5.2c-3.37,2.65-6.44,5.35-9.81,7.62
			c-1.73,1.17-4,2.27-5.98,2.21c-4.51-0.14-4.4-3.8-4.11-7.58c-4.13,2.25-7.85,4.33-11.62,6.3c-23.56,12.36-48.98,20.02-73.82,29.13
			c-14.14,5.19-28.39,10.1-42.75,14.64c-5.16,1.63-10.79,1.71-16.16,2.77c-2.12,0.42-4.08,1.64-6.16,2.37
			c-1.78,0.63-3.63,1.09-5.44,1.63c-0.38-0.29-0.75-0.57-1.13-0.86c0.83-2.05,1.66-4.09,2.49-6.14c1.05,0.44,2.09,0.89,3.87,1.64
			c2.11-1.61,4.7-3.72,8.82-4.38c5.72-0.92,11.09-4.08,16.57-6.39c0.83-0.35,1.7-1.14,2.05-1.95c1.63-3.69,2.98-7.51,4.61-11.2
			c3.09-7.02,6.19-14.04,9.51-20.96c2.8-5.84,5.84-11.57,8.89-17.29C58.04,70.45,59.56,68.27,60.88,66.15z M40.95,120.34
			c1.21,0,2.15,0.24,2.9-0.04c7.42-2.77,14.82-5.59,22.2-8.45c6.6-2.56,13.14-5.27,19.75-7.79c8.88-3.38,17.89-6.45,26.69-10.03
			c9.84-4,19.62-8.19,29.22-12.73c4.41-2.09,8.6-4.88,12.41-7.94c4.28-3.44,3.76-5.04-1.27-7.59c-10.37-5.27-21.66-6.56-32.92-6.59
			c-12.46-0.04-24.95,1.06-37.37,2.24c-3.83,0.37-8.53-0.11-11.09,4.35c-4.06,7.06-8.35,13.99-12.37,21.08
			c-4.1,7.24-7.98,14.61-11.95,21.93C45.11,112.56,43.09,116.35,40.95,120.34z M98.28,22.52c0.7-1.33,1.03-1.96,1.37-2.58
			c1.81-3.26,3.75-6.46,5.34-9.82c0.42-0.88-0.27-2.29-0.45-3.45c-1,0.46-2.32,0.65-2.93,1.42c-3.51,4.37-6.74,8.97-10.32,13.28
			c-1.26,1.52-3.04,3-4.88,3.57c-13.08,4.04-26.25,7.83-39.37,11.73c-0.86,0.26-1.61,0.85-2.47,1.32c1.76,3.45,4.4,2.51,6.69,1.84
			c5.25-1.54,10.4-3.44,15.64-5.01c5.9-1.77,11.86-3.35,18.55-5.23c-5.15,8.08-9.96,15.35-14.44,22.81c-1.89,3.14-4.3,4.9-7.83,5.42
			c-1.72,0.25-3.46,0.6-5.1,1.14c-0.94,0.31-1.72,1.1-2.57,1.67c0.84,0.98,1.53,2.54,2.54,2.8c1.83,0.46,3.86,0.13,6.29,0.13
			c-0.4,1.22-0.57,2.17-1,2.97c-3.02,5.68-6.12,11.31-9.14,16.99c-4.57,8.58-9.25,17.11-13.55,25.83c-1.24,2.51-1.35,5.58-1.98,8.4
			c1.29-0.72,1.69-1.68,2.19-2.57c4.4-7.8,8.8-15.6,13.26-23.37C59.53,82.4,64.92,73,70.5,63.71c0.79-1.31,2.5-2.61,3.98-2.88
			c21.2-3.93,42.56-5.07,63.89-1.59c6.24,1.02,12.34,3.7,18.11,6.45c3.8,1.81,4.06,4.86,0.85,7.53c-4.35,3.61-9,7.16-14.08,9.53
			c-11.72,5.47-23.72,10.37-35.73,15.2c-11.21,4.51-22.56,8.68-33.89,12.88c-16.88,6.27-33.81,12.43-50.7,18.69
			c-2.03,0.75-3.95,1.83-6.81,3.18c1.74,0.86,2.5,1.59,3.1,1.48c2.74-0.54,5.51-1.12,8.15-2.03c18.14-6.27,36.35-12.34,54.33-19.05
			c19.68-7.34,39.26-14.98,58.59-23.18c6.76-2.87,13.08-7.25,18.82-11.91c5.28-4.29,4.39-11.48-1.27-15.4
			c-3.03-2.1-6.45-3.88-9.96-5c-16.79-5.39-34.1-5.07-51.43-4.12c-4.83,0.26-9.64,0.75-14.46,1.13
			c16.04-6.68,32.29-12.34,48.42-18.31c6.99-2.59,13.81-5.68,20.55-8.87c1.35-0.64,2.82-2.88,2.71-4.26c-0.1-1.34-2-2.78-3.41-3.71
			c-1.06-0.7-2.62-0.98-3.93-0.91c-11.54,0.59-23.09,1.19-34.61,2.02C107.44,20.89,103.2,21.8,98.28,22.52z M252.94,1.6
			c-15,33.03-37.2,62.13-46.75,97.39c3.11-4.69,5.27-10.09,8.85-14.27c3.65-4.27,8.7-7.34,13.48-11.21
			c-1.26,3.81-2.65,6.91-3.27,10.16c-0.63,3.27,1.98,5.99,5.06,6.02c3,0.03,4.45-1.62,4.23-4.8c-1.42,0.61-2.83,1.22-4.25,1.83
			c-0.36-0.24-0.72-0.48-1.08-0.72c2.36-6,4.73-12.01,7.26-18.46c-7.98-2.02-11.68,4.58-17.46,7.65c0.75-1.74,1.26-3.24,2.02-4.61
			c6.74-12.19,13.61-24.31,20.26-36.54c4.64-8.54,9.03-17.21,13.42-25.87C255.88,5.86,256.51,3.41,252.94,1.6z M181.54,82.42
			c1.26-3.29,2.2-5.39,2.85-7.58c0.34-1.15,0.16-2.45,0.21-3.68c-1.38,0.02-2.98-0.4-4.1,0.15c-1.97,0.98-3.69,2.5-5.44,3.89
			c-3.6,2.87-7.15,5.82-10.72,8.73c2.57-7.47,9.32-10.26,15.06-14.56c-1.11-0.68-2.42-1.41-3.14-1.03
			c-7.17,3.83-12.88,9.29-17.01,16.29c-0.52,0.88-0.27,2.96,0.44,3.62c0.75,0.7,2.76,0.92,3.7,0.4c2.48-1.37,4.74-3.19,6.99-4.95
			c2.77-2.17,5.45-4.46,7.36-6.04c1.67,2.4,2.73,4.94,4.63,6.37c2.09,1.58,7.87-0.79,10.51-3.57
			C189.56,81.05,186.11,81.64,181.54,82.42z M206.57,72.74c-0.32-1.45-0.36-2.89-0.98-4c-0.38-0.68-2.1-1.43-2.44-1.17
			c-4.16,3.27-8.18,6.72-12.23,10.12c0.31,0.47,0.62,0.95,0.93,1.42c3.56-2.1,7.13-4.2,10.69-6.3c-0.16,1.63-0.83,2.95-1.86,3.86
			c-3.73,3.27-7.71,6.26-11.3,9.66c-0.97,0.92-0.91,2.94-1.32,4.46c1.8,0.3,4,1.39,5.32,0.73c2.71-1.35,5.18-3.42,7.35-5.59
			c4.15-4.14,5.09-10.74,10.42-14.07c0.07-0.05-0.01-0.34-0.03-0.67C209.66,71.69,208.27,72.16,206.57,72.74z"/>
		<path d="M278.57,76.3c-5.78,1.25-6.18,7.02-9.22,10.47c-3.58,4.05-6.91,8.13-13.18,7.53c-3.06-0.29-4.69-1.84-4.76-4.62
			c-0.2-8.64,1.05-16.67,8.93-22.29c2.4-1.71,4.06-4.01,7.52-4c4.76,0.02,6.74,2.78,8,7.4c3.02-1.3,5.93-2.35,8.64-3.79
			c2.49-1.32,5.08-0.26,6.1,2.87c2.47-1.62,4.91-3.29,7.43-4.84c1.04-0.64,2.28-1.5,3.34-1.4c1.81,0.17,4.25,0.52,5.15,1.73
			c0.86,1.17,0.63,3.78-0.07,5.33c-3.08,6.78-6.51,13.4-10.2,20.86c-4.57,1.64-5.5-3.31-4.43-12c-3.19,2.95-6.45,5.82-9.53,8.87
			c-1.78,1.77-3.67,2.85-5.8,1.15c-0.94-0.76-1.86-2.62-1.58-3.65C275.79,82.7,277.26,79.62,278.57,76.3z M295.12,89.27
			c3.09-6.34,6.26-12.73,9.29-19.19c0.51-1.1,0.38-2.5,0.54-3.76c-1.38-0.14-2.96-0.78-4.1-0.32c-2.15,0.88-4.14,2.26-6.04,3.65
			c-3.12,2.28-6.12,4.74-9.17,7.12c0.11-2.46,0.75-4.42,1.35-6.4c0.12-0.41,0.27-1.02,0.08-1.25c-0.22-0.25-0.88-0.33-1.25-0.2
			c-3.85,1.29-7.68,2.65-11.6,4.01c-0.91-3.76-1.43-6.69-5.15-7.49c-3.44-0.73-5.36,1-6.94,3.61c-0.13,0.21-0.27,0.47-0.48,0.57
			c-6.94,3.26-7.49,10.07-8.58,16.31c-0.33,1.87,0.97,5.07,2.49,5.93c1.5,0.85,4.88,0.23,6.3-1.03c3.3-2.92,6.78-6.2,8.61-10.09
			c2.54-5.39,7.07-6.15,12.19-7.78c-1.82,3.98-3.51,7.38-4.91,10.91c-0.48,1.21-0.24,2.71-0.33,4.07c1.31-0.6,2.84-0.94,3.9-1.84
			c5.56-4.71,11.01-9.55,16.5-14.35c0.25,0.25,0.51,0.49,0.76,0.74c-1.3,2.94-2.65,5.87-3.9,8.83
			C292.74,85.97,293,87.88,295.12,89.27z"/>
		<path d="M254.03,69.56c-2.65,5.78-5,11.1-7.54,16.32c-0.81,1.67-1.95,3.3-3.3,4.56c-0.91,0.85-2.53,1.51-3.67,1.32
			c-0.7-0.12-1.79-2.2-1.54-3.06c1.51-5.16,3.32-10.23,5.12-15.3c0.61-1.72,1.63-3.29,2.22-5.02c0.83-2.43,2.34-4.19,4.86-3.24
			C251.59,65.69,252.46,67.68,254.03,69.56z M239.58,90.06c0.39,0.06,0.78,0.13,1.17,0.19c0.75-0.93,1.72-1.76,2.23-2.81
			c2.76-5.63,5.5-11.26,7.99-17.02c0.34-0.79-0.81-2.23-1.27-3.36c-0.8,0.63-1.98,1.09-2.35,1.92c-2.39,5.3-4.67,10.65-6.82,16.05
			C239.92,86.59,239.88,88.38,239.58,90.06z"/>
		<path d="M248.79,56.05c1.89-4.22,3.55-8.24,5.49-12.13c1.63-3.29,4.76-2.18,6.7-0.98c1.13,0.7,1.71,3.89,1.13,5.43
			c-1.41,3.74-3.39,7.34-5.68,10.62c-0.76,1.08-3.29,1.62-4.74,1.28C250.61,60.01,249.98,57.91,248.79,56.05z M250.83,56.07
			c0.83,1.11,1.27,2.27,1.9,2.39c0.69,0.13,1.92-0.49,2.3-1.15c1.89-3.18,3.7-6.43,5.25-9.78c0.37-0.8-0.12-2.87-0.61-3.02
			c-1.06-0.32-3.1-0.17-3.48,0.5C254.22,48.52,252.62,52.27,250.83,56.07z"/>
		<path class="st0" d="M98.28,22.52c4.91-0.73,9.15-1.63,13.44-1.94c11.53-0.83,23.07-1.43,34.61-2.02
			c1.31-0.07,2.87,0.21,3.93,0.91c1.41,0.93,3.31,2.37,3.41,3.71c0.11,1.38-1.36,3.62-2.71,4.26c-6.74,3.2-13.56,6.28-20.55,8.87
			c-16.13,5.97-32.38,11.63-48.42,18.31c4.82-0.38,9.63-0.87,14.46-1.13c17.33-0.95,34.64-1.27,51.43,4.12c3.5,1.12,6.93,2.9,9.96,5
			c5.66,3.92,6.54,11.11,1.27,15.4c-5.74,4.66-12.06,9.04-18.82,11.91c-19.33,8.2-38.92,15.83-58.59,23.18
			c-17.98,6.71-36.19,12.77-54.33,19.05c-2.64,0.91-5.4,1.49-8.15,2.03c-0.6,0.12-8.91,1.49-10.65,0.63
			c2.87-1.35,12.33-4.53,14.36-5.29c16.89-6.26,33.81-12.42,50.7-18.69c11.33-4.21,22.68-8.38,33.89-12.88
			c12.01-4.83,24-9.73,35.73-15.2c5.08-2.37,9.73-5.91,14.08-9.53c3.21-2.67,2.95-5.72-0.85-7.53c-5.77-2.75-11.87-5.43-18.11-6.45
			c-21.33-3.49-42.69-2.35-63.89,1.59C73,61.1,71.29,62.4,70.5,63.71C64.92,73,59.53,82.4,54.14,91.79
			c-4.46,7.77-8.85,15.57-13.26,23.37c-0.5,0.89-0.9,1.85-2.19,2.57c0.63-2.81,0.74-5.88,1.98-8.4c4.3-8.72,8.98-17.25,13.55-25.83
			c3.02-5.68,6.12-11.31,9.14-16.99c0.43-0.81,0.6-1.75,1-2.97c-2.43,0-4.46,0.33-6.29-0.13c-1.02-0.25-1.71-1.82-2.54-2.8
			c0.85-0.57,1.63-1.37,2.57-1.67c1.65-0.54,3.38-0.88,5.1-1.14c3.53-0.52,5.95-2.28,7.83-5.42c4.48-7.47,9.3-14.73,14.44-22.81
			c-6.69,1.88-12.65,3.46-18.55,5.23c-5.24,1.58-10.39,3.47-15.64,5.01c-2.29,0.67-4.93,1.61-6.69-1.84
			c0.85-0.47,1.61-1.07,2.47-1.32c13.12-3.91,26.29-7.7,39.37-11.73c1.83-0.57,3.62-2.05,4.88-3.57c3.57-4.31,6.8-8.91,10.32-13.28
			c0.62-0.77,1.94-0.96,2.93-1.42c0.18,1.16,0.87,2.57,0.45,3.45c-1.59,3.37-3.54,6.56-5.34,9.82
			C99.31,20.56,98.99,21.2,98.28,22.52z M77.12,52.29c12.56-5.14,24.15-9.98,35.82-14.64c11.84-4.73,24.21-8.18,36.02-14.56
			c-1.06-0.57-1.26-0.76-1.47-0.77c-17.16-0.88-34,1.63-50.76,4.9c-1.02,0.2-2.26,0.77-2.84,1.57
			C88.39,36.34,83.02,43.98,77.12,52.29z"/>
		<path class="st0" d="M252.94,1.6c3.56,1.81,2.94,4.26,1.78,6.55c-4.4,8.66-8.79,17.34-13.42,25.87
			c-6.65,12.24-13.52,24.35-20.26,36.54c-0.76,1.37-1.26,2.87-2.02,4.61c5.78-3.07,9.47-9.67,17.46-7.65
			c-2.54,6.45-4.9,12.46-7.26,18.46c0.36,0.24,0.72,0.48,1.08,0.72c1.42-0.61,2.83-1.22,4.25-1.83c0.22,3.18-1.23,4.83-4.23,4.8
			c-3.08-0.03-5.69-2.75-5.06-6.02c0.62-3.25,2.01-6.35,3.27-10.16c-4.78,3.87-9.83,6.94-13.48,11.21
			c-3.58,4.18-5.74,9.59-8.85,14.27C215.74,63.73,237.94,34.63,252.94,1.6z"/>
		<path class="st0" d="M181.54,82.42c4.57-0.78,8.02-1.37,11.34-1.94c-2.64,2.77-8.42,5.15-10.51,3.57
			c-1.89-1.43-2.95-3.97-4.63-6.37c-1.91,1.58-4.59,3.87-7.36,6.04c-2.25,1.76-4.5,3.58-6.99,4.95c-0.94,0.52-2.95,0.3-3.7-0.4
			c-0.7-0.66-0.96-2.74-0.44-3.62c4.13-7,9.84-12.46,17.01-16.29c0.72-0.38,2.03,0.35,3.14,1.03c-5.74,4.3-12.49,7.09-15.06,14.56
			c3.57-2.91,7.12-5.86,10.72-8.73c1.75-1.39,3.47-2.91,5.44-3.89c1.12-0.55,2.72-0.13,4.1-0.15c-0.05,1.23,0.13,2.53-0.21,3.68
			C183.74,77.03,182.8,79.13,181.54,82.42z"/>
		<path class="st0" d="M206.57,72.74c1.71-0.58,3.09-1.05,4.56-1.54c0.02,0.32,0.1,0.62,0.03,0.67c-5.32,3.33-6.26,9.93-10.42,14.07
			c-2.17,2.17-4.64,4.24-7.35,5.59c-1.33,0.66-3.52-0.43-5.32-0.73c0.41-1.52,0.35-3.54,1.32-4.46c3.59-3.41,7.57-6.4,11.3-9.66
			c1.03-0.91,1.7-2.23,1.86-3.86c-3.56,2.1-7.13,4.2-10.69,6.3c-0.31-0.47-0.62-0.95-0.93-1.42c4.05-3.4,8.07-6.85,12.23-10.12
			c0.34-0.27,2.07,0.49,2.44,1.17C206.2,69.85,206.25,71.29,206.57,72.74z M191.91,87.57c0.37,0.38,0.73,0.77,1.1,1.15
			c2.45-2.38,4.91-4.77,7.36-7.15c-0.31-0.32-0.61-0.64-0.92-0.97C196.93,82.93,194.42,85.25,191.91,87.57z"/>
		<path class="st0" d="M295.12,89.27c-2.12-1.39-2.38-3.29-0.44-7.93c1.24-2.97,2.59-5.89,3.9-8.83c-0.25-0.25-0.51-0.49-0.76-0.74
			c-5.49,4.8-10.93,9.65-16.5,14.35c-1.06,0.9-2.59,1.24-3.9,1.84c0.09-1.37-0.15-2.86,0.33-4.07c1.4-3.52,3.09-6.93,4.91-10.91
			c-5.12,1.63-9.65,2.38-12.19,7.78c-1.83,3.88-5.31,7.17-8.61,10.09c-1.42,1.26-4.8,1.88-6.3,1.03c-1.53-0.86-2.82-4.06-2.49-5.93
			c1.09-6.24,1.65-13.05,8.58-16.31c0.2-0.1,0.35-0.36,0.48-0.57c1.58-2.61,3.5-4.34,6.94-3.61c3.72,0.79,4.25,3.72,5.15,7.49
			c3.91-1.36,7.75-2.71,11.6-4.01c0.37-0.13,1.03-0.05,1.25,0.2c0.2,0.22,0.05,0.84-0.08,1.25c-0.6,1.98-1.24,3.94-1.35,6.4
			c3.05-2.38,6.04-4.84,9.17-7.12c1.9-1.39,3.88-2.78,6.04-3.65c1.13-0.46,2.72,0.18,4.1,0.32c-0.17,1.26-0.03,2.66-0.54,3.76
			C301.39,76.53,298.21,82.92,295.12,89.27z M255.86,89.04c6.25-1.57,8.91-6.32,11.65-10.53c-2.5-1.38-4.56-2.51-6.96-3.83
			C258.34,79.11,255.37,83.26,255.86,89.04z M264.1,73.09c2.28,1.37,4.46,1.66,5.83-0.66c0.49-0.83-0.21-3.52-0.72-3.62
			C266.04,68.16,265.16,70.68,264.1,73.09z"/>
		<path class="st0" d="M239.58,90.06c0.3-1.68,0.34-3.47,0.96-5.02c2.14-5.4,4.43-10.75,6.82-16.05c0.37-0.82,1.54-1.29,2.35-1.92
			c0.46,1.14,1.61,2.57,1.27,3.36c-2.48,5.75-5.23,11.39-7.99,17.02c-0.51,1.05-1.48,1.88-2.23,2.81
			C240.36,90.19,239.97,90.12,239.58,90.06z"/>
		<path class="st0" d="M250.83,56.07c1.8-3.81,3.39-7.55,5.37-11.07c0.38-0.67,2.42-0.82,3.48-0.5c0.5,0.15,0.98,2.22,0.61,3.02
			c-1.55,3.36-3.36,6.6-5.25,9.78c-0.39,0.65-1.61,1.28-2.3,1.15C252.1,58.34,251.66,57.18,250.83,56.07z"/>
		<path d="M77.12,52.29c5.9-8.31,11.27-15.95,16.77-23.5c0.58-0.8,1.82-1.37,2.84-1.57c16.76-3.27,33.6-5.77,50.76-4.9
			c0.21,0.01,0.41,0.21,1.47,0.77c-11.8,6.37-24.18,9.83-36.02,14.56C101.27,42.31,89.67,47.15,77.12,52.29z M141.59,24.55
			c-0.05-0.24-0.1-0.48-0.15-0.72c-2.17,0-4.37-0.23-6.51,0.04c-11.37,1.4-22.73,2.86-34.07,4.45c-1.84,0.26-4.21,0.76-5.25,2.03
			c-4.06,4.95-7.68,10.25-11.47,15.42c0.2,0.33,0.4,0.67,0.6,1C103.69,39.36,122.64,31.95,141.59,24.55z"/>
		<path d="M191.91,87.57c2.51-2.32,5.03-4.64,7.54-6.97c0.31,0.32,0.61,0.64,0.92,0.97c-2.45,2.38-4.91,4.77-7.36,7.15
			C192.64,88.34,192.27,87.96,191.91,87.57z"/>
		<path d="M255.86,89.04c-0.48-5.78,2.48-9.93,4.69-14.37c2.4,1.32,4.46,2.46,6.96,3.83C264.76,82.72,262.1,87.47,255.86,89.04z
			 M257.68,85.23c0.33,0.2,0.66,0.4,1,0.6c1.88-2,3.77-3.99,5.76-6.1c-1.31-0.75-2.19-1.26-3.21-1.85
			C259.96,80.51,258.82,82.87,257.68,85.23z"/>
		<path d="M264.1,73.09c1.06-2.41,1.94-4.93,5.11-4.29c0.51,0.1,1.21,2.79,0.72,3.62C268.56,74.75,266.38,74.47,264.1,73.09z"/>
	</g>
</g>
</svg>
