<?xml version="1.0" encoding="utf-8"?>
<!-- Generator: Adobe Illustrator 28.1.0, SVG Export Plug-In . SVG Version: 6.00 Build 0)  -->
<svg version="1.1" id="Calque_1" xmlns="http://www.w3.org/2000/svg" xmlns:xlink="http://www.w3.org/1999/xlink" x="0px" y="0px"
	 viewBox="0 0 238.74 495.78" style="enable-background:new 0 0 238.74 495.78;" xml:space="preserve">
<g>
	<g>
		<path d="M121.64,495.62c-18.99,0-37.99,0.14-56.98-0.07c-8.45-0.09-10.52-2.1-11.64-10.4c-4.7-34.95-9.31-69.92-13.89-104.89
			c-2.14-16.33-3.97-32.69-6.27-48.99c-0.44-3.09-1.86-6.42-3.81-8.85C8.56,297-1.98,268.23,0.31,235.47
			c1.81-25.91,10.72-49.31,27.98-69.05c3.57-4.08,5.44-8.22,6.11-13.64C39.75,110.04,45.41,67.34,51,24.62
			c0.71-5.44,1.49-10.87,2.32-16.29c0.69-4.5,3.11-7.19,7.91-7.42C66.22,0.67,71.2-0.01,76.18,0c33.66,0.05,67.32,0.14,100.98,0.44
			c9.96,0.09,11.83,1.8,13.17,11.74c2.24,16.65,4.23,33.34,6.08,50.05c2.97,26.79,5.74,53.6,8.59,80.4
			c0.23,2.15,0.59,4.31,0.58,6.46c-0.08,9.28,4.17,16.34,9.68,23.68c31.55,41.98,31.23,100.19-0.52,142.36
			c-4.53,6.01-6.68,12.17-7.45,19.5c-3.34,31.93-7.02,63.83-10.65,95.74c-2.01,17.69-3.96,35.39-6.33,53.03
			c-1.43,10.65-2.76,11.99-13.19,12.19c-18.49,0.36-36.99,0.1-55.48,0.1C121.64,495.67,121.64,495.64,121.64,495.62z M18.38,243.75
			c-3.34,50.78,43.49,102.31,101.59,101.77c56.75-0.53,99.24-47.8,100.81-97c2.12-66.36-52.53-105.75-99.06-106.78
			C64.7,140.49,15.37,190.29,18.38,243.75z"/>
		<path d="M75.32,212.73c2.24,1.05,4.64,1.86,6.69,3.2c11.26,7.37,22.5,14.77,33.59,22.39c2.79,1.91,4.62,1.83,7.42-0.11
			c16.67-11.54,33.5-22.85,50.31-34.2c1.64-1.11,3.47-2.68,5.22-2.7c1.94-0.01,4.55,1.04,5.63,2.53c0.84,1.15,0.51,4.54-0.56,5.46
			c-5.02,4.32-10.36,8.32-15.81,12.1c-14.88,10.33-29.83,20.56-44.9,30.6c-1.52,1.02-4.69,1.46-6.03,0.57
			c-14.67-9.74-29.2-19.71-43.61-29.83c-3.93-2.76-3.97-5.96-0.74-8.58C73.24,213.58,74.21,213.29,75.32,212.73z"/>
	</g>
</g>
</svg>
