<?xml version="1.0" encoding="utf-8"?>
<!-- Generator: Adobe Illustrator 28.1.0, SVG Export Plug-In . SVG Version: 6.00 Build 0)  -->
<svg version="1.1" id="Calque_1" xmlns="http://www.w3.org/2000/svg" xmlns:xlink="http://www.w3.org/1999/xlink" x="0px" y="0px"
	 viewBox="0 0 165.75 165.75" style="enable-background:new 0 0 165.75 165.75;" xml:space="preserve">
<g>
	<g>
		<path d="M25.41,58.1c14.81,0.08,30.89,1.26,46.6,5.3c7.44,1.92,14.51,1.76,21.96-0.02c19.93-4.74,40.16-6.57,60.6-4.09
			c1.93,0.23,5.35,1.3,5.37,2.03c0.06,3.08-0.58,6.3-1.61,9.23c-0.9,2.56-3.06,4.66-3.95,7.22c-1.8,5.17-3.04,10.52-4.64,15.76
			c-2.12,6.97-6.84,10.91-13.93,12.55c-7.77,1.79-15.45,2.11-23.21,0.2c-7.26-1.78-13-5.76-16.56-12.35
			c-2.83-5.25-5.18-10.76-7.59-16.23c-1.09-2.47-2.3-4.19-5.39-4.23c-3.24-0.04-4.6,1.67-5.69,4.34c-1.88,4.61-3.87,9.19-6.05,13.66
			c-4.74,9.7-12.8,14.47-23.29,15.84c-6.94,0.9-13.6-0.1-20.23-1.9c-5.28-1.44-9.08-4.71-10.86-9.91
			c-1.93-5.65-3.59-11.4-5.24-17.14c-0.86-2.98-1.84-5.56-4.13-8.05c-1.75-1.91-1.84-5.78-1.73-8.74c0.03-0.84,3.3-1.97,5.19-2.24
			C15.33,58.72,19.69,58.55,25.41,58.1z"/>
	</g>
</g>
</svg>
