<?xml version="1.0" encoding="utf-8"?>
<!-- Generator: Adobe Illustrator 28.1.0, SVG Export Plug-In . SVG Version: 6.00 Build 0)  -->
<svg version="1.1" id="Calque_1" xmlns="http://www.w3.org/2000/svg" xmlns:xlink="http://www.w3.org/1999/xlink" x="0px" y="0px"
	 viewBox="0 0 241 241" style="enable-background:new 0 0 241 241;" xml:space="preserve">
<g>
	<g>
		<path d="M63.52,240.27c-2.92-1.7-3.76-4.26-3.55-7.55c0.31-4.93,0.47-9.75-3.33-13.94c-1.34-1.47-1.63-4.36-1.55-6.57
			c1.17-32.77,2.45-65.55,3.78-98.32c1.12-27.61,2.45-55.2,3.47-82.81c0.28-7.47-0.27-14.96-0.31-22.45
			c-0.04-7.19,0.66-7.85,8.07-7.85c25.33-0.02,50.65-0.01,75.98-0.01c9.33,0,18.66,0.11,27.99-0.03c4.59-0.07,6.4,1.58,6.5,6.45
			c0.85,43.62,1.85,87.24,2.98,130.85c0.64,24.46,1.67,48.92,2.36,73.38c0.07,2.55-0.15,5.95-1.69,7.55
			c-3.96,4.1-3.35,8.84-3.1,13.54c0.22,4.34-1.02,7.12-5.6,7.76c-6.33,0-12.67,0-19,0c-2.67-1.12-7.43,0.12-7.28-4.37
			c0.24-7.6-2.11-14.33-4.21-21.47c-3.49-11.86-5.05-24.28-7.49-36.45c-5.41-26.91-10.86-53.81-16.52-81.81
			c-0.72,2.22-1.24,3.41-1.49,4.65c-7.21,35.2-14.62,70.37-21.45,105.65c-1.89,9.74-8.09,18.53-6.31,29.16
			c0.21,1.28-2.75,3.08-4.25,4.64C79.52,240.27,71.52,240.27,63.52,240.27z M69.31,61.24c-0.25,1.55-0.66,3.15-0.73,4.77
			c-0.4,9.81-0.72,19.63-1.08,29.44c-0.52,14.31-1.04,28.62-1.6,42.93c-0.95,24.62-1.91,49.23-2.89,73.84
			c-0.13,3.22,1.08,5.1,4.54,5.09c5.33-0.02,10.7,0.36,15.97-0.21c1.8-0.2,4.36-2.5,4.82-4.29c2.07-8.01,3.52-16.18,5.19-24.3
			c6.9-33.6,13.82-67.2,20.67-100.82c0.77-3.76,2.21-6.96,6.45-6.96c4.45-0.01,6.02,3.26,6.81,7.22
			c8.31,41.61,16.7,83.21,25.01,124.82c0.62,3.13,2.2,4.63,5.42,4.56c4-0.09,8-0.01,11.99-0.02c7.79-0.01,8.24-0.54,8.03-8.19
			c-1.16-41.61-2.24-83.22-3.43-124.83c-0.22-7.76-0.79-15.51-1.19-23.19c-21.34-1.92-24.81-5.46-28.28-28.57
			c-16.03,0-32.08,0-48.14,0C96.86,51.67,88.65,60.65,69.31,61.24z M172.32,8.85c-34.27,0-68.09,0-102.02,0c0,5.15,0,10.07,0,15.19
			c34.12,0,67.96,0,102.02,0C172.32,19.01,172.32,14.25,172.32,8.85z M153.74,32.49c-2.67,16.06,9.8,22.95,19.88,19.29
			c-0.39-6.29-0.78-12.67-1.18-19.29C166.09,32.49,160.05,32.49,153.74,32.49z M70.4,32.4c-0.32,3.72-0.7,7.01-0.85,10.32
			c-0.14,3.24-0.03,6.49-0.03,9.6C84.36,55.1,91.29,42.12,87.74,32.4C82.15,32.4,76.53,32.4,70.4,32.4z M68.27,231.52
			c5.47,0,10.36,0,15.48,0c0-2.14,0-4.03,0-5.93c-5.29,0-10.3,0-15.48,0C68.27,227.67,68.27,229.42,68.27,231.52z M172.74,225.6
			c-5.49,0-10.39,0-15.3,0c0,2.21,0,4.08,0,5.85c5.34,0,10.25,0,15.3,0C172.74,229.37,172.74,227.61,172.74,225.6z"/>
	</g>
</g>
</svg>
