<?xml version="1.0" encoding="utf-8"?>
<!-- Generator: Adobe Illustrator 28.1.0, SVG Export Plug-In . SVG Version: 6.00 Build 0)  -->
<svg version="1.1" id="Calque_1" xmlns="http://www.w3.org/2000/svg" xmlns:xlink="http://www.w3.org/1999/xlink" x="0px" y="0px"
	 viewBox="0 0 800 800" style="enable-background:new 0 0 800 800;" xml:space="preserve">
<g transform="translate(0.000000,800.000000) scale(0.100000,-0.100000)">
	<path d="M1813,7984c-56-28-63-58-63-280v-197l-53-53c-61-58-96-114-123-194c-18-53-19-153-19-3623V68l37-34l38-34h1055
		c1143,0,1091-2,1129,52c14,20,16,269,16,2480v2458h150h150V2540c0-2171,2-2454,15-2480c33-63-31-60,1150-60h1075l38,34l37,34
		l3,3514c2,2396-1,3538-8,3593c-12,95-50,180-108,248l-42,48v227c0,249-2,257-60,287c-25,13-294,15-2207,15
		C2066,8000,1842,7998,1813,7984z M6070,7675v-95H4025H1980v95v95h2045h2045V7675z M2568,7148c-4-177-8-211-27-268
		c-69-200-200-352-378-441c-89-44-231-79-325-79h-58v408c0,388,1,409,21,452c27,60,45,79,104,106c49,23,56,24,359,24h308L2568,7148z
		 M3890,6286V5223l-103-5c-111-5-145-18-165-64c-9-19-12-645-12-2474V230h-915h-915v2950c0,1623,3,2950,8,2950c58,0,244,25,302,41
		c255,69,479,250,603,487c78,149,107,295,107,538v154h545h545V6286z M4340,6665c0-749,2-725-58-788c-22-24-148-97-167-97
		c-3,0-5,353-5,785v785h115h115V6665z M5203,7148c5-207,15-272,57-386c132-353,444-588,827-621c65-6,121-11,126-11
		c4,0,7-1327,7-2950V230h-930h-930l-2,2453c-3,2317-4,2454-20,2480c-26,39-52,49-145,55l-83,5v148v148l133,68
		c193,99,272,184,313,336c11,42,14,183,14,740v687h314h313L5203,7148z M6101,7322c39-20,62-41,84-77l30-48l3-420l3-420l-93,6
		c-279,19-501,165-624,412c-61,123-74,193-74,403v172h309h309L6101,7322z"/>
</g>
</svg>
