<?xml version="1.0" encoding="utf-8"?>
<!-- Generator: Adobe Illustrator 28.1.0, SVG Export Plug-In . SVG Version: 6.00 Build 0)  -->
<svg version="1.1" id="Calque_1" xmlns="http://www.w3.org/2000/svg" xmlns:xlink="http://www.w3.org/1999/xlink" x="0px" y="0px"
	 viewBox="0 0 277.37 599.25" style="enable-background:new 0 0 277.37 599.25;" xml:space="preserve">
<g>
	<g>
		<path d="M26.33,599.25c-5.24-2-7.13-5.96-7.31-11.39c-1.23-36.05-2.58-72.09-3.92-108.14c-1.65-44.65-3.33-89.3-4.99-133.95
			c-1.35-36.54-2.66-73.09-4.02-109.63c-1.64-44.4-3.32-88.8-4.97-133.2c-0.4-10.85-0.72-21.71-1.11-32.56
			c-0.29-7.88,2.41-14.6,7.42-20.61c1-1.19,1.63-3.07,1.65-4.64c0.14-11.36,0.05-22.72,0.08-34.08C9.19,3.63,12.78,0.01,20.19,0.01
			C99.2,0,178.21,0,257.22,0.01c7.28,0,10.96,3.73,10.98,11.14c0.04,11.36-0.04,22.72,0.08,34.08c0.02,1.47,0.53,3.25,1.46,4.33
			c5.36,6.28,7.9,13.45,7.6,21.69c-0.64,17.34-1.21,34.68-1.85,52.01c-1.14,30.81-2.31,61.61-3.46,92.42
			c-1.66,44.4-3.33,88.8-4.97,133.2c-1.35,36.42-2.68,72.84-4.02,109.26c-1.58,43.15-3.21,86.31-4.67,129.47
			c-0.18,5.23-2.07,9.06-6.57,11.65c-31.96,0-63.92,0-95.88,0c-5.14-2.62-6.73-6.86-6.72-12.52c0.09-131.03,0.07-262.06,0.07-393.09
			c0-1.62,0.04-3.25-0.08-4.86c-0.35-4.58-2.85-7.77-7.03-9.28c-4.22-1.53-8.09-0.46-11.28,2.84c-2.69,2.78-2.79,6.2-2.79,9.76
			c0.02,131.4,0,262.81,0.1,394.21c0,5.78-1.48,10.18-6.73,12.94C89.75,599.25,58.04,599.25,26.33,599.25z M37.81,580.32
			c24.02,0,47.69,0,71.67,0c0-1.8,0-3.39,0-4.99c0-128.33,0.03-256.65-0.04-384.98c-0.01-12.65,5.6-21.62,16.65-27.29
			c2.28-1.17,3.2-2.38,3.2-5.03c-0.1-31.71-0.06-63.41-0.07-95.12c0-1.21-0.13-2.42-0.21-3.81c-17.05,0-33.83,0-51.13,0
			c1.15,17.39-1.79,33.5-12.99,47.36c-11.27,13.94-26.02,20.95-44.03,22.5c0.27,5.72,0.56,11.17,0.76,16.62
			c0.79,20.8,1.55,41.61,2.32,62.41c0.73,19.68,1.46,39.36,2.19,59.04c0.77,20.8,1.54,41.61,2.31,62.41
			c0.73,19.68,1.46,39.36,2.19,59.04c0.77,20.68,1.53,41.36,2.3,62.04c0.73,19.81,1.5,39.61,2.19,59.42
			c0.62,17.82,1.11,35.64,1.74,53.47C37.03,568.98,37.47,574.55,37.81,580.32z M148.38,59.05c-0.1,1.02-0.21,1.63-0.21,2.24
			c-0.01,32.57-0.04,65.15,0.09,97.72c0,1.2,1.2,2.93,2.31,3.5c11.82,6.06,17.38,15.59,17.38,28.9
			c-0.08,128.05-0.05,256.1-0.05,384.15c0,1.57,0,3.15,0,4.68c24.23,0,47.99,0,71.66,0c0.34-5.88,0.76-11.47,0.98-17.06
			c0.79-20.05,1.52-40.11,2.26-60.16c0.75-20.18,1.5-40.36,2.25-60.54c0.75-20.18,1.5-40.36,2.25-60.54
			c0.75-20.3,1.5-40.61,2.25-60.91c0.75-20.18,1.5-40.36,2.25-60.54c0.75-20.31,1.5-40.61,2.25-60.92
			c0.74-20.06,1.51-40.11,2.23-60.17c0.12-3.45,0.02-6.91,0.02-10.54c-18.01-1.17-32.62-8.52-43.83-22.22
			c-11.32-13.84-14.17-30.23-13-47.59C182.12,59.05,165.43,59.05,148.38,59.05z M98.44,18.92c0,7.08,0,13.97,0,20.74
			c27.05,0,53.8,0,80.57,0c0-7.08,0-13.87,0-20.74C152.01,18.92,125.25,18.92,98.44,18.92z M257.24,109.91
			c0.43-14.03,1-28.05,1.21-42.08c0.06-4.03-4.12-8.52-7.96-8.61c-10.67-0.26-21.35-0.09-32-0.09
			C214.25,89.81,234.54,109.05,257.24,109.91z M58.88,58.94c-9.9,0-19.62-0.1-29.33,0.03c-7.06,0.1-10.86,4.19-10.73,11.4
			c0.18,9.71,0.46,19.41,0.8,29.11c0.12,3.46,0.57,6.9,0.87,10.34C41.66,109.35,63.18,90.61,58.88,58.94z M79.36,18.96
			c-17.26,0-34.26,0-51.32,0c0,7.02,0,13.82,0,20.72c17.2,0,34.18,0,51.32,0C79.36,32.7,79.36,26.01,79.36,18.96z M197.99,39.65
			c17.35,0,34.34,0,51.32,0c0-7.1,0-13.89,0-20.66c-17.24,0-34.24,0-51.32,0C197.99,25.94,197.99,32.64,197.99,39.65z"/>
	</g>
</g>
</svg>
