<?xml version="1.0" encoding="utf-8"?>
<!-- Generator: Adobe Illustrator 28.1.0, SVG Export Plug-In . SVG Version: 6.00 Build 0)  -->
<svg version="1.1" id="Calque_1" xmlns="http://www.w3.org/2000/svg" xmlns:xlink="http://www.w3.org/1999/xlink" x="0px" y="0px"
	 viewBox="0 0 523.5 1383.75" xml:space="preserve">
<g>
	<g>
		<path d="M523.35,398.07c0,120.5,0,241.01,0,361.51c-0.27,1.19-0.58,2.38-0.81,3.58c-3.42,17.84-12.92,30.84-30.06,37.77
			c-22.68,9.17-49.22,0.02-60.2-20.83c-4.41-8.38-5.85-17.39-5.85-26.8c0.05-104.5,0.03-209.01,0.03-313.51c0-1.59,0-3.19,0-4.95
			c-8.29,0-16.17,0-24.36,0c0,2.2,0,4.05,0,5.91c0,289.51,0,579.01-0.01,868.52c0,4.37,0.03,8.76-0.29,13.12
			c-0.84,11.38-3.92,22.1-10.11,31.79c-23.87,37.37-82.72,37.75-108.83,0.69c-9.03-12.82-12.38-27.31-12.37-42.82
			c0.03-168.38,0.02-336.76,0.02-505.14c0-1.68,0-3.36,0-4.92c-7.33,0-14.01,0-20.88,0c0,2.06,0,3.8,0,5.54
			c0,167.5,0,335.01,0,502.51c0,2.5,0,5-0.04,7.5c-0.67,38.03-28.93,65.67-66.88,64.71c-24.92-0.64-43.73-11.9-54.81-34.7
			c-5.18-10.67-6.51-22.18-6.51-33.92c0.02-291.13,0.02-582.26,0.02-873.4c0-1.83,0-3.65,0-5.42c-8.34,0-16.13,0-24.16,0
			c0,1.92,0,3.53,0,5.14c0,103.13,0,206.26,0,309.38c0,2,0.05,4-0.06,6c-1.03,18.89-8.48,34.01-25.79,43.13
			c-24.71,13.02-56.13,2.65-66.84-21.95c-3.46-7.95-4.39-16.32-4.39-24.9c0.02-114.25,0.03-228.51,0-342.76
			c0-15.72,1.99-31.14,6.52-46.2c17.32-57.59,67.26-106.06,140.72-105.1c75.75,1,151.52,0.22,227.28,0.22
			c16.75,0,33.19,2.19,48.91,8.07c50.59,18.94,81.26,55.78,95.22,107.22C521.01,381.23,521.87,389.74,523.35,398.07z"/>
		<path d="M269.82,1.31c5.5,0.95,11.07,1.64,16.5,2.88c46.92,10.7,81.13,48.39,87.16,95.88c7.8,61.52-36.25,118.18-97.64,125.59
			c-62.29,7.52-118.14-36.05-125.9-98.22c-7.37-59.01,34.24-114.9,92.7-124.49c3.8-0.62,7.62-1.1,11.43-1.65
			C259.31,1.31,264.56,1.31,269.82,1.31z"/>
	</g>
</g>
</svg>
