<?xml version="1.0" encoding="utf-8"?>
<!-- Generator: Adobe Illustrator 28.0.0, SVG Export Plug-In . SVG Version: 6.00 Build 0)  -->
<svg version="1.1" id="Calque_1" xmlns="http://www.w3.org/2000/svg" xmlns:xlink="http://www.w3.org/1999/xlink" x="0px" y="0px"
	 viewBox="0 0 600 280.8" style="enable-background:new 0 0 600 280.8;" xml:space="preserve">
<path d="M0,30.2C5.8,9.2,22.2,2.5,41.4,0.4c13.7-1.5,26.9,1,38.4,9.4c5.3,3.8,9.5,8.7,11.6,14.8c8.5,24.6,27.5,36,51.5,40.4
	c21.6,4,42.4,0.9,61.2-11.1c13.5-8.6,22.4-20.4,24-36.9c0.6-5.8,6.6-11.3,14-12.3c4.5-0.6,9.3-0.6,13.7,0.5
	c60.1,16.1,120.1,32.2,180,48.7c25.8,7.1,51.4,14.7,75.5,26.5c33.8,16.5,60.2,40.8,77,74.8c7.2,14.7,10,30.5,11,46.7
	c0.1,2,0.5,3.9,0.7,5.9c0,15,0,30,0,45c-0.2,4-0.5,7.9-0.5,11.9c0,5.2-2.4,9-6.6,11.9c-5,3.4-10.6,4-16.5,4
	c-184.4,0-368.8,0-553.3,0c-1,0-2,0-3,0c-9-0.3-16.3-3.4-20.2-12.1C0,189.2,0,109.7,0,30.2z M405.3,190.4c0.3-0.7,0.4-0.9,0.4-1.2
	c0-36.2,0.1-72.5,0-108.7c0-0.9-1.2-2.3-2.2-2.6c-4.9-1.6-9.9-2.7-14.7-4.3c-2.1-0.7-3.1-0.1-4.2,1.7c-5.1,8.2-10.3,16.2-15.5,24.3
	c-5.8,9.1-14.9,12.8-25.4,10.6c-13.3-2.8-17.5-12.8-10.2-24.1c4.9-7.7,9.8-15.3,15-23.4c-6-1.7-11.8-3-17.2-4.9
	c-4-1.4-5.8-0.4-7.9,3.1c-4.9,8.3-10.2,16.3-15.5,24.3C300.7,96,282,97.5,273.1,88c-4.3-4.6-4.9-10-1.5-15.4
	c4.4-7,8.9-13.9,13.3-20.8c1.1-1.8,2.2-3.5,3.5-5.6c-8.7-2.4-17-4.7-25.3-7c-7.6,17.2-19.7,29.9-35.5,39
	c-38.7,22.3-79.3,24.3-120.5,8.4C82.3,77,62.9,60.7,53.7,34.4c-1.2-3.5-4.9-5-9-4.1c-3.7,0.8-4.9,3.2-4.8,6.9
	c0.1,17.5,0.1,35,0,52.5c0,2.9,1,4.5,3.2,6.2c41.1,30.8,82.2,61.6,123.3,92.4c1.7,1.3,4.3,2.1,6.4,2.1c76.2,0.1,152.5,0.1,228.7,0.1
	C402.8,190.4,404.1,190.4,405.3,190.4z M40.1,250.5c173.2,0,346.2,0,519.1,0c0-10.2,0-20.1,0-29.9c-173.2,0-346.1,0-519.1,0
	C40.1,230.7,40.1,240.5,40.1,250.5z M446,190.1c37.5,0,74.7,0,112,0c-0.1-0.9-0.1-1.5-0.2-2.1c-3.8-18.4-11.9-34.6-24.3-48.7
	c-16.3-18.5-36.7-31.1-59.3-40.3c-9.1-3.7-18.5-6.6-28.2-10.1C446,123.2,446,156.5,446,190.1z M112.3,190.1
	C87.8,171.8,64.2,154,40.1,136c0,18.6,0,36.2,0,54.1C64,190.1,87.6,190.1,112.3,190.1z"/>
</svg>
