<?xml version="1.0" encoding="utf-8"?>
<!-- Generator: Adobe Illustrator 28.1.0, SVG Export Plug-In . SVG Version: 6.00 Build 0)  -->
<svg version="1.1" id="Calque_1" xmlns="http://www.w3.org/2000/svg" xmlns:xlink="http://www.w3.org/1999/xlink" x="0px" y="0px"
	 viewBox="0 0 383.3 383.2" style="enable-background:new 0 0 383.3 383.2;" xml:space="preserve">
<path d="M251.7,0c22.8,11.4,45.6,22.8,68.4,34.1c7.2,3.6,12.4,8.9,16.1,16c14.7,28.6,29.6,57.1,44.3,85.6c5.6,10.9,2.8,19.7-8.2,25
	c-22.9,11.1-45.7,22.2-68.6,33.1c-2.6,1.3-3.5,2.7-3.5,5.6c0.1,51.9,0.1,103.8,0.1,155.7c0,17.7-10.4,28.1-28.1,28.1
	c-53.8,0-107.5,0-161.3,0c-17.2,0-27.8-10.5-27.8-27.7c0-51.6-0.1-103.3,0.1-154.9c0-4-1.3-5.8-4.8-7.4
	c-21.5-10.2-42.8-20.7-64.3-30.9c-6.3-3-11.6-6.6-14.1-13.4c0-2.5,0-5,0-7.5c0.9-1.8,1.7-3.5,2.6-5.3c14.9-28.8,29.9-57.7,44.8-86.5
	c3.6-7,8.9-12.2,16-15.7C86.4,22.8,109.2,11.4,132,0c2.5,0,5,0,7.5,0c0.6,0.2,1.1,0.6,1.7,0.7c24.3,5.2,48.7,7.2,73.4,4.4
	c10-1.1,19.8-3.3,29.7-5.1C246.7,0,249.2,0,251.7,0z M69.7,45.4c4.4,6.4,9.2,12.3,12.8,18.7C92.8,82.3,96,102.2,96,122.8
	c0,77.7,0,155.5,0,233.2c0,9.6,5,14.6,14.5,14.6c54.3,0,108.5,0,162.8,0c9.2,0,14.3-5.1,14.3-14.4c0-10.4,0-20.7,0-31.1
	c0-69.2,0-138.5,0.1-207.7c0-13.4,2.3-26.6,6.9-39.2c4.4-12.1,10.8-22.9,20.1-32.4c-20.1-10.1-39.9-20-60-30.1
	c-0.4,1.4-0.6,2.4-0.9,3.5c-5,18.7-15.5,32.7-33.9,40c-11.6,4.6-23.8,5.2-36.1,4.5c-28-1.7-47.6-18.2-54.2-45.4
	c-0.2-0.8-0.6-1.5-0.9-2.5C108.7,25.8,88.9,35.7,69.7,45.4z M299.7,181.1c1.5-0.2,1.7-0.1,1.9-0.2c22-10.6,44-21.2,65.9-31.9
	c3.6-1.7,3.9-3.1,1.9-6.9c-9.5-18.4-19-36.7-28.6-55.1c-5.6-10.7-11.1-21.4-16.9-32.6c-1.9,2.1-3.6,3.9-5.2,5.8
	c-9.7,12.2-15.8,26.4-16.8,41.7C300.5,128.2,300.4,154.5,299.7,181.1z M59.7,54.6c-0.5,0.9-0.8,1.3-1.1,1.7
	C43.8,85,28.9,113.6,14.1,142.2c-2,3.8-1.5,5,2.5,7c19.9,9.7,39.9,19.3,59.9,29c2.1,1,4.2,2,6.6,3.1c0.1-1.1,0.1-1.8,0.1-2.5
	c0-20.5,0.1-40.9-0.1-61.4c-0.1-10.8-1.7-21.3-5-31.6C74.4,74.1,68.8,63.5,59.7,54.6z M242.1,13.8c-33.7,7-66.9,7-100.5,0
	c4,17,13.1,28.8,29.2,34.1c14,4.6,28.3,4.6,42.3,0C229.1,42.5,238.2,30.8,242.1,13.8z"/>
</svg>
