<?xml version="1.0" encoding="utf-8"?>
<!-- Generator: Adobe Illustrator 28.1.0, SVG Export Plug-In . SVG Version: 6.00 Build 0)  -->
<svg version="1.1" id="Calque_1" xmlns="http://www.w3.org/2000/svg" xmlns:xlink="http://www.w3.org/1999/xlink" x="0px" y="0px"
	 viewBox="0 0 525.5 600.1" style="enable-background:new 0 0 525.5 600.1;" xml:space="preserve">
<path d="M449.9,600.1c-49.8,0-99.5,0-149.3,0c-4.5-2-6.9-5.5-8.7-10.1c-8.7-22.8-17.7-45.6-26.6-68.4c-0.5-1.2-1-2.4-1.8-4.1
	c-0.6,1.5-1,2.4-1.4,3.4c-9,23.1-18.1,46.2-27,69.4c-1.8,4.6-4.3,8.1-9,9.8c-49.3,0-98.5,0-147.8,0c-5.4-2.4-9.4-5.8-8.7-12.4
	c1.5-14.9,3.2-29.8,4.7-44.7c1.3-12.4,2.6-24.8,3.9-37.6c-1.7-0.1-3.1-0.2-4.6-0.2c-20,0-40,0-60,0c-9.7,0-13.6-3.9-13.6-13.7
	c0-100.3-0.1-200.7,0.1-301c0-10.8,1.1-21.7,3.1-32.4c6.3-33.3,22.5-61.7,45.2-86.4c28.9-31.5,64.5-52.8,104.4-67.2
	c3.9-1.4,7.8-3,11.7-4.5c2,0,4,0,6,0c4.9,2,7.3,5.9,8.9,10.8c14.2,42.1,28.6,84.1,42.8,126.1c5,14.7,10,29.5,15,44.3
	c5.6,16.4,11.1,32.8,16.7,49.3c2.4,7.1,4.9,14.3,7.6,22c0.6-1.4,1-2.2,1.2-3c7.7-21.6,15.5-43.2,23.2-64.8c7.1-20,14-40,21.1-60
	c13.4-38,26.9-75.9,40.1-113.9c1.7-4.8,4.1-8.4,8.6-10.6c2,0,4,0,6,0c5.3,2,10.7,4,16,6c40.9,15.4,76.7,38.4,105.1,72
	c27.8,32.8,42.7,70.6,42.7,113.9c0,99.8,0,199.7,0,299.5c0,9.7-4,13.7-13.6,13.7c-19.2,0-38.5,0-57.7,0c-1.5,0-2.9,0-4.7,0
	c0.2,1.7,0.2,2.9,0.4,4.1c2.6,25.1,5.1,50.2,7.9,75.2C459.1,592.1,456.9,597.2,449.9,600.1z M93.2,577.7c1.4,0.1,2.5,0.3,3.6,0.3
	c38.8,0,77.5,0,116.3,0.1c2.6,0,3.7-0.9,4.6-3.2c11.3-29.2,22.7-58.4,34-87.6c0.6-1.6,1-3.4,1-5.1c0.1-44.6,0.1-89.2,0-133.9
	c0-1.7-0.6-3.7-1.6-5.1c-7.7-11.5-15.6-22.9-23.4-34.4c-33.6-49.1-67.1-98.1-100.7-147.2c-4.7-6.8-4.2-11.4,1.6-17.3
	c4.9-4.9,9.7-9.7,14.6-14.6c4.9-4.8,9.7-9.6,15-14.8c-10.2-10.1-20.1-19.8-29.9-29.6c-5-5-5.7-8.9-2.5-15.1
	c5.9-11.7,11.9-23.3,17.8-35c0.5-1,0.9-2.1,1.4-3.1c-0.2-0.2-0.5-0.4-0.7-0.7c-8.5,4.4-17.2,8.5-25.6,13.2
	c-29.9,16.8-55.2,38.7-73.5,67.9c-13.9,22.2-22.6,46.4-22.6,72.7c-0.2,97.7-0.1,195.5-0.1,293.2c0,1.5,0,2.9,0,4.4
	c19.7,0,39.1,0,58.4,0c0.3-2.5,0.6-4.7,0.8-6.9c2.7-25.5,5.4-50.9,8-76.4c0.8-7.9,2.3-16,1.7-23.8c-1.3-17.2-3.8-34.3-5.8-51.4
	c-5.3-44.2-10.5-88.5-15.5-132.8c-0.3-2.9,1-6.4,2.7-8.9c2.2-3.3,6-4.4,10-3.5c4.4,1,7.7,3.4,8.6,7.9c0.9,4.4,1.3,8.9,1.8,13.3
	c3.2,26.7,6.3,53.3,9.4,80c2.9,24.7,5.8,49.4,8.7,74.1c1,8.7,2.3,17.4,2.4,26.1c0,7.9-1.5,15.9-2.3,23.9
	c-2.6,25.1-5.3,50.2-7.9,75.3c-2.4,23-4.8,46-7.2,68.9C95.2,558.1,94.2,567.8,93.2,577.7z M503.9,483c0-1.3,0-2.3,0-3.3
	c0-96.4,0.1-192.7-0.1-289.1c0-28.8-8.2-55.4-23.7-79.7c-23.5-36.7-57-61.3-96.3-78.8c-0.4-0.2-0.8-0.1-1.6-0.3
	c6.7,13.2,13.2,26,19.7,38.8c2.8,5.5,2.1,9.9-2.3,14.3c-1.9,1.9-3.7,3.7-5.6,5.6c-8.2,8.1-16.4,16.1-24.8,24.3
	c9.9,9.9,19.4,19.3,28.8,28.8c6.8,6.8,7.2,10.9,1.9,18.7c-41,60-82.1,120-123,180.1c-1.3,1.9-2.2,4.5-2.2,6.8c-0.1,44-0.1,88,0,132
	c0,2.2,0.4,4.5,1.2,6.5c11.2,29,22.6,57.9,33.7,86.9c1,2.7,2.4,3.4,5.2,3.4c38.7-0.1,77.5-0.1,116.3-0.1c1.2,0,2.4-0.1,4.1-0.2
	c-1-9.5-1.9-18.6-2.8-27.8c-2.6-25.1-5.3-50.2-7.9-75.3c-2.7-25.5-5.4-50.9-8-76.4c-0.8-8.1-2.3-16.3-1.5-24.2
	c3-30.2,6.9-60.3,10.4-90.4c3.7-31.1,7.4-62.3,11-93.4c0.8-7.2,5.8-12,12.2-11.4c6.4,0.5,10.5,6.1,9.7,13.5
	c-2.7,23.7-5.5,47.4-8.3,71.1c-3.9,33.5-7.9,67-11.8,100.5c-0.6,5.6-1.7,11.2-1.2,16.7c2.3,25.1,5.1,50.2,7.7,75.3
	c0.9,9,1.9,18,2.9,27.1C466.5,483,484.9,483,503.9,483z M361,39.6c-0.6,1.6-1.2,2.8-1.6,4.1c-21.1,59.5-42.1,119-63.2,178.5
	c-11.1,31.5-22.3,63-33.4,94.5c-0.7,2-1.6,3.9,1.2,5.4c38.1-55.7,76.1-111.3,114.7-167.8c-1.2-0.8-2.5-1.5-3.5-2.4
	c-9.3-9.3-18.5-18.6-27.8-27.9c-6.1-6.1-6.1-12,0-18.2c9.8-9.8,19.6-19.6,29.5-29.4c1.6-1.6,1.8-2.8,0.8-4.8
	c-5.1-9.7-10-19.5-15-29.3C362.3,41.5,361.7,40.7,361,39.6z M246.3,297.1c1.9-5.9,4.1-10.4,2-16.4c-26.8-78.1-53.3-156.3-79.9-234.4
	c-0.7-2-1.4-4-2.4-6.5c-6.1,12-11.9,23.3-17.7,34.6c0.8,0.9,1.5,1.6,2.2,2.3c9.8,9.8,19.7,19.5,29.5,29.4c6,6.1,6,11.9,0,17.9
	c-4,4-7.9,8-11.9,11.9c-6.4,6.3-12.8,12.6-19.2,18.9C181.5,202.3,213.7,249.4,246.3,297.1z"/>
</svg>
