<?xml version="1.0" encoding="utf-8"?>
<!-- Generator: Adobe Illustrator 28.1.0, SVG Export Plug-In . SVG Version: 6.00 Build 0)  -->
<svg version="1.1" id="Calque_1" xmlns="http://www.w3.org/2000/svg" xmlns:xlink="http://www.w3.org/1999/xlink" x="0px" y="0px"
	 viewBox="0 0 500 500" style="enable-background:new 0 0 500 500;" xml:space="preserve">
<g>
	<g>
		<path d="M105.98,500c-21,0-42,0-63,0c0.06-4.1-3.26-4.47-5.91-4.64c-10.74-0.67-15.59-8.14-14.88-18.96
			c1.43-21.92,2.5-43.86,3.82-65.79c1.11-18.44,1.85-36.93,3.67-55.31c2.84-28.63,6.29-57.21,9.8-85.77
			c1.96-15.99,4.56-31.91,6.91-47.85c0.22-1.47,0.73-2.9,1.1-4.35c2.95-11.57,5.78-23.17,8.88-34.7c2.32-8.64,4.86-17.22,7.56-25.75
			c1.69-5.36,3.72-10.64,5.83-15.85c3.16-7.82,6.21-15.72,9.93-23.29c2.44-4.97,4.92-11.08,9.21-13.72
			c8.24-5.08,17.74-8.14,26.78-11.9c13.04-5.41,26.11-10.73,39.2-16.02c5.17-2.09,7.28-5.87,7.18-11.32
			c-0.14-7.33,0.2-14.66-0.08-21.98c-0.67-17.16,9.72-26.43,24.37-31.85c8.49-3.14,17.58-4.6,26.31-7.14c1.67-0.49,2.9-2.5,4.33-3.8
			c21.67,0,43.33,0,65,0c1.51,1.28,2.82,3.23,4.55,3.73c9.05,2.61,18.5,4.09,27.28,7.38c14.11,5.29,24.64,14.3,24.21,31.52
			c-0.2,7.82,0,15.65,0,23.48c0,4.89,2.24,8.18,6.81,9.98c5.26,2.07,10.48,4.24,15.71,6.39c12.28,5.05,24.63,9.92,36.79,15.24
			c5.68,2.49,11.78,4.98,16.2,9.08c3.64,3.37,5.23,9.04,7.46,13.82c2.51,5.4,4.86,10.88,7.03,16.43c3.19,8.16,6.37,16.33,9.14,24.64
			c2.83,8.48,5.36,17.08,7.67,25.72c3.12,11.69,6.55,23.36,8.68,35.25c3.22,17.99,5.7,36.12,8.02,54.25
			c3.09,24.08,6.01,48.2,8.45,72.35c1.7,16.88,2.61,33.85,3.6,50.8c1.58,27.08,3.1,54.17,4.27,81.27
			c0.38,8.73-2.12,11.23-10.19,14.35c-1.84,0.71-3.12,2.84-4.66,4.31c-22.67,0-45.33,0-68,0c-0.48-7.26-0.66-14.56-1.63-21.76
			c-0.27-1.98-2.89-3.65-4.43-5.46c-1.11,1.96-3.1,3.88-3.18,5.87c-0.27,7.1,0.11,14.23,0.24,21.35c-90.67,0-181.33,0-272,0
			c0.26-5.6,0.86-11.21,0.58-16.78c-0.09-1.86-2.42-3.62-3.73-5.42c-1.35,1.63-3.65,3.14-3.88,4.91
			C106.22,488.42,106.25,494.23,105.98,500z M236.87,270.13c-0.02,0-0.04,0-0.05,0c0-9.33,0-18.66,0-27.99
			c0-37.83,0.01-75.65-0.02-113.48c-0.01-9.8-2.07-12.12-11.62-13.15c-5.63-0.61-11.42-0.38-16.9-1.63
			c-9.67-2.19-19.79-3.93-28.51-8.28c-7.76-3.88-14.26-4.23-21.77-1.06c-12.37,5.23-24.79,10.35-37.26,15.32
			c-5.33,2.13-6.75,5.21-4.69,10.49c4.41,11.29,8.64,22.66,12.89,34.01c5.02,13.4,9.73,26.92,15.05,40.19
			c2.91,7.26,4.68,14.48,4.19,22.34c-1.47,23.61-2.86,47.22-4.12,70.84c-2.08,38.76-4.03,77.52-6.03,116.28
			c-0.31,5.95,3.3,9.78,9.29,9.73c3.33-0.03,6.65-0.44,9.98-0.43c23.16,0.07,46.32,0.2,69.47,0.34c6.5,0.04,10.09-3.32,10.09-9.55
			C236.87,366.11,236.87,318.12,236.87,270.13z M263.74,269.99c0,10.33,0.03,20.66,0,30.99c-0.12,38.15-0.26,76.29-0.38,114.44
			c-0.02,4.75,3.58,8.59,8.36,8.75c3.99,0.13,8,0.02,11.99,0.02c22.66,0.02,45.31,0.04,67.97,0.05c6.95,0,10.39-3.28,10.07-9.36
			c-1.26-23.95-2.37-47.9-3.71-71.84c-2.15-38.24-4.63-76.47-6.52-114.73c-0.31-6.31,0.59-13.1,2.73-19.03
			c9.6-26.56,19.86-52.89,29.85-79.31c1.44-3.81,0.4-7.17-3.18-8.92c-5.36-2.61-11.02-4.62-16.53-6.94
			c-7.17-3.02-14.35-6-21.46-9.16c-6.38-2.84-12.69-5.11-19.54-1.36c-11.83,6.48-24.46,10.18-38,10.68
			c-4.32,0.16-8.64,0.6-12.95,1.05c-5.13,0.55-8.14,3.63-8.58,8.72c-0.19,2.15-0.13,4.33-0.13,6.49
			C263.73,177.03,263.73,223.51,263.74,269.99z M448.26,438.68c0.24-0.02,0.47-0.04,0.71-0.06c-1.33-14.58-2.81-29.16-3.94-43.76
			c-1.36-17.43-1.91-34.94-3.73-52.32c-3.1-29.62-6.68-59.2-10.54-88.73c-1.46-11.18-4.07-22.22-6.46-33.26
			c-1.79-8.27-3.85-16.5-6.18-24.64c-2.83-9.87-6-19.65-9.22-29.41c-0.73-2.2-2.27-4.14-3.43-6.2c-1.99,1.66-4.07,3.24-5.94,5.04
			c-0.65,0.63-0.77,1.81-1.12,2.74c-5.24,13.79-10.55,27.56-15.69,41.39c-2.38,6.41-4.19,12.84-2.96,19.96
			c2.49,14.42,4.5,28.92,6.63,43.4c0.8,5.43,1.16,10.93,2.04,16.35c2.98,18.38,6.15,36.73,9.12,55.11c0.87,5.42,1.11,10.93,2,16.35
			c3,18.37,6.33,36.7,9.2,55.09c2.64,16.92,4.84,33.91,7.28,50.86c0.24,1.64,0.66,3.27,1.1,4.87c1.45,5.16,3.91,7.12,9.16,6.02
			c6.65-1.4,13.28-3.19,19.62-5.59c1.72-0.65,3.38-4.09,3.38-6.25C449.29,456.65,448.66,447.66,448.26,438.68z M94.7,159.16
			c-0.58,0.21-1.16,0.41-1.75,0.62c-2.3,6.32-5.02,12.52-6.83,18.97c-4.11,14.71-8.36,29.42-11.46,44.35
			c-3.11,14.96-5.23,30.15-7.21,45.32c-3.54,27.07-6.97,54.15-9.81,81.3c-1.84,17.55-2.62,35.21-3.72,52.84
			c-1.31,20.94-2.46,41.9-3.68,62.84c-0.18,3.14,0.74,5.68,4,6.65c5.58,1.66,11.14,3.4,16.81,4.71c8.12,1.87,10.73,0.13,12.1-8
			c2.28-13.62,4.49-27.25,6.48-40.91c2.61-17.94,4.96-35.92,7.44-53.89c0.27-1.98,0.73-3.93,1.04-5.91
			c1.3-8.21,2.59-16.42,3.86-24.63c0.54-3.46,0.97-6.93,1.56-10.38c2.77-16.23,5.82-32.42,8.32-48.7
			c2.85-18.59,5.32-37.23,7.73-55.88c0.44-3.39,0.48-7.13-0.48-10.35c-2.36-7.94-5.34-15.71-8.21-23.5
			c-3.15-8.55-6.24-17.15-9.82-25.52C99.54,165.52,96.85,162.46,94.7,159.16z M312.66,482.94c3.83,0,7.65,0,11.48,0
			c8.98,0.01,17.97,0.01,26.95,0.03c9.67,0.02,11.1-1.35,11.18-10.78c0.03-3.82,0.03-7.65,0.18-11.47
			c0.29-7.25-2.6-10.53-9.96-10.55c-26.62-0.07-53.23-0.04-79.85,0.02c-5.9,0.01-9.28,3.57-9.19,9.37
			c0.06,4.49,0.19,8.98,0.28,13.46c0.16,8.37,1.72,9.92,10.01,9.93C286.71,482.95,299.69,482.95,312.66,482.94z M186.28,482.41
			c0-0.03,0-0.06,0-0.08c13.32,0,26.65,0.02,39.97-0.01c6.45-0.01,8.65-2.09,8.97-8.6c0.24-4.82,0.38-9.65,0.37-14.47
			c-0.01-5.4-3.35-9.04-8.48-9.05c-26.98-0.07-53.96-0.11-80.94-0.02c-6.24,0.02-9.01,2.99-9.26,9.33
			c-0.18,4.49-0.21,8.99-0.19,13.49c0.04,7.46,2.06,9.41,9.58,9.42C159.64,482.41,172.96,482.41,186.28,482.41z M250.75,28
			c-5.99,0-11.41-0.64-16.62,0.14c-10.33,1.54-20.57,3.73-30.76,6.01c-1.64,0.37-4.25,3.12-3.97,3.93c0.64,1.86,2.56,3.59,4.39,4.65
			c1.47,0.86,3.54,0.74,5.36,0.92c6.45,0.67,12.93,1.18,19.37,1.95c21.19,2.55,42.22,0.83,63.12-2.71c2.81-0.48,5.21-3.44,7.8-5.25
			c-2.48-1.56-4.77-3.75-7.47-4.59C278.33,28.84,264.38,26.8,250.75,28z M226.46,88.49c4.46,0.22,9.17-3.08,9.52-6.02
			c0.35-2.96-3.06-6.79-6.8-7.5c-1.46-0.28-2.99-0.18-4.45-0.45c-7.98-1.46-15.95-3-23.93-4.48c-1.95-0.36-4.15-1.25-5.82-0.68
			c-2.07,0.71-4.7,2.38-5.25,4.19c-0.51,1.68,0.81,4.89,2.35,6.06C202.5,87.5,215.39,86.21,226.46,88.49z M272.58,89.45
			c8.81-1.62,17.7-2.93,26.39-5.03c3.39-0.82,6.6-3.1,9.44-5.3c3.41-2.66,2.19-7.83-2.06-8.87c-2.15-0.53-4.6-0.2-6.85,0.16
			c-9.32,1.51-18.6,3.25-27.93,4.75c-4.16,0.67-8.44,4.19-8.33,7.29C263.36,85.61,268.32,89.16,272.58,89.45z"/>
	</g>
</g>
</svg>
