<?xml version="1.0" encoding="utf-8"?>
<!-- Generator: Adobe Illustrator 28.1.0, SVG Export Plug-In . SVG Version: 6.00 Build 0)  -->
<svg version="1.1" id="Calque_1" xmlns="http://www.w3.org/2000/svg" xmlns:xlink="http://www.w3.org/1999/xlink" x="0px" y="0px"
	 viewBox="0 0 729.8 799.2" style="enable-background:new 0 0 729.8 799.2;" xml:space="preserve">
<g transform="translate(0.000000,800.000000) scale(0.100000,-0.100000)">
	<path d="M3098.5,7988.3c-144-30-267-93-369-190c-145-138-225-297-247-492l-7-63h-451c-561,0-655-10-897-90
		c-414-137-758-438-959-839c-50-101-113-286-143-419c-21-97-21-101-24-1972c-3-1845-3-1876,16-1940c34-111,112-206,203-248l37-17
		l1-199c0-231,9-265,79-304c38-22,45-22,469-22h429l39-65c111-191,294-333,509-395l90-26l5-305c5-333,6-336,67-376
		c26-17,119-18,1703-18s1677,1,1703,18c61,40,62,43,67,376l5,305l79,23c149,43,274,114,375,214c61,61,134,156,162,211l19,38h434
		c433,0,433,0,466,23c73,49,75,55,78,291l3,213l42,20c61,30,117,83,154,144c68,113,64-20,61,2030l-3,1854l-23,115
		c-120,606-533,1077-1115,1274c-220,75-336,86-890,86h-444l-7,58c-31,273-186,500-418,616c-165,82-147,80-723,82
		C3276.5,8001.3,3149.5,7999.3,3098.5,7988.3z M4157.5,7692.3c76-17,153-62,216-124c106-105,152-226,141-369c-3-44-9-83-14-88
		s-35,7-67,27c-77,46-144,70-249,90c-74,14-157,16-578,13c-561-5-560-5-725-93c-49-27-85-41-88-34c-14,21-17,156-6,211
		c36,171,175,319,341,364C3185.5,7705.3,4091.5,7708.3,4157.5,7692.3z M2697.5,6390.3c257-865,253-855,356-981
		c91-111,248-214,383-252l62-17v-2074v-2074l-792,3l-793,3l-74,27c-173,63-303,196-361,368c-15,45-24,100-27,180l-5,115l63,18
		c121,35,207,109,263,226c30,64,31,71,34,226l4,160l221,135c121,74,229,147,240,161c53,72,22,185-60,221c-64,28-92,20-254-78
		c-77-46-142-84-145-84c-2,0-4,417-4,928c0,559-4,973-10,1042c-44,480-144,900-278,1165c-44,88-55,100-399,446l-354,356l43,35
		c166,134,360,225,568,266c151,30,121,29,660,30l495,2L2697.5,6390.3z M4211.5,6915.3c67-27,180-109,185-133c4-20-302-1048-325-1093
		c-92-182-301-291-495-258c-141,24-276,119-340,237c-25,47-338,1073-338,1109c0,18,85,88,142,117c91,47,114,48,628,46
		C4152.5,6938.3,4153.5,6938.3,4211.5,6915.3z M5933.5,6911.3c194-46,352-118,510-235l87-65l-359-361c-358-361-359-362-406-457
		c-89-181-176-485-227-800c-49-303-50-337-50-1357c0-530-2-963-4-963c-3,0-68,38-146,85c-162,98-194,107-259,73c-52-27-81-74-81-134
		c0-74,25-97,268-244l222-135v-143c0-159,16-228,71-308c56-81,161-152,252-169l37-7v-82c-1-185-57-327-178-445
		c-75-74-127-107-237-147c-47-18-99-19-842-22l-793-3v2074v2075l47,11c196,50,405,222,493,406c17,36,120,362,228,726l197,660l530-4
		C5820.5,6936.3,5824.5,6936.3,5933.5,6911.3z M905.5,6051.3c310-312,333-338,367-409c99-209,192-616,226-992c8-83,10-516,8-1365
		l-3-1244l-28-24l-28-24h-542c-591,0-571-2-596,57c-9,21-11,493-8,1878c3,1845,3,1850,24,1935c31,125,59,204,108,305
		c47,97,120,215,133,215C570.5,6383.3,723.5,6233.3,905.5,6051.3z M6779.5,6321.3c84-129,146-280,191-463l22-90l3-1840
		c2-1012,1-1851-2-1863c-3-13-18-35-32-48l-26-24h-544h-545l-29,30l-30,29l4,1323l3,1323l26,165c40,250,85,450,132,595
		c77,232,67,219,439,593c183,182,335,332,340,332C6735.5,6383.3,6757.5,6355.3,6779.5,6321.3z M1148.5,1588.3v-95h-295h-295v95v95
		h295h295V1588.3z M6738.5,1588.3v-95h-295h-295v95v95h295h295V1588.3z M5128.5,498.3v-195h-1480h-1480v195v195h1480h1480V498.3z"/>
	<path d="M4460.5,4547.3c-100-27-164-64-243-143c-85-85-121-146-150-259c-47-178,12-376,150-512c167-164,409-203,616-101
		c141,70,252,202,289,346c20,75,20,204,1,278c-49,190-202,342-392,391C4657.5,4567.3,4531.5,4567.3,4460.5,4547.3z M4703.5,4242.3
		c85-40,136-122,138-219c2-101-52-182-152-228c-203-94-415,135-312,336c24,47,76,97,121,116
		C4550.5,4270.3,4649.5,4267.3,4703.5,4242.3z"/>
</g>
</svg>
