<?xml version="1.0" encoding="utf-8"?>
<!-- Generator: Adobe Illustrator 28.1.0, SVG Export Plug-In . SVG Version: 6.00 Build 0)  -->
<svg version="1.1" id="Calque_1" xmlns="http://www.w3.org/2000/svg" xmlns:xlink="http://www.w3.org/1999/xlink" x="0px" y="0px"
	 viewBox="0 0 633.75 1383.75" style="enable-background:new 0 0 633.75 1383.75;" xml:space="preserve">
<g>
	<g>
		<path d="M255.33,1383.75c-4.74,0-9.49,0-14.23,0c-0.95-0.24-1.89-0.55-2.86-0.72c-13.67-2.46-25.2-8.6-33.66-19.84
			c-7.94-10.53-10.43-22.71-10.43-35.64c0.03-127.75,0.02-255.5,0.02-383.25c0-1.69,0-3.37,0-5.33c-46.36,0-92.15,0-138.39,0
			c49.64-174.53,99.18-348.68,148.83-523.23c-6.76,0-12.89,0.27-18.97-0.1c-4.08-0.25-5.67,1.11-6.82,5.1
			c-28.05,97.09-56.19,194.15-84.61,291.14c-2.07,7.05-5.51,14.06-9.81,20.01c-11.21,15.49-26.79,22.23-45.78,18.73
			c-17.81-3.29-29.72-14.11-35.45-31.31c-4.14-12.43-2.86-24.9,0.85-37.24c30.97-102.99,62.14-205.92,92.78-309
			c6.65-22.37,15.96-43.01,30.98-60.9c29.61-35.26,66.84-55.32,113.42-55.64c50.57-0.34,101.14-0.1,151.71-0.06
			c13.18,0.01,26.11,1.91,38.73,5.76c30.36,9.29,54.63,27.46,74.51,51.79c12.48,15.28,22.85,31.86,28.63,50.93
			c10.2,33.67,20.29,67.37,30.43,101.06c21.53,71.56,43.08,143.12,64.58,214.69c3.81,12.69,4.88,25.52,0.79,38.37
			c-10,31.46-47.23,43.3-72.23,22.98c-9.44-7.68-14.98-17.93-18.33-29.43c-22.51-77.39-44.97-154.8-67.44-232.2
			c-5.95-20.49-11.89-40.98-17.93-61.44c-0.36-1.2-1.52-3.07-2.36-3.09c-8.56-0.23-17.13-0.14-26.19-0.14
			c50.84,174.67,101.52,348.78,152.32,523.32c-47.49,0-94.51,0-141.88,0c0,1.91,0,3.51,0,5.1c0,127.37,0,254.75,0,382.12
			c0,2.38,0.03,4.75-0.03,7.12c-0.68,24.05-13.96,41.59-36.56,48.19c-2.96,0.86-6.01,1.42-9.01,2.12c-4,0-7.99,0-11.99,0
			c-0.81-0.24-1.61-0.59-2.44-0.7c-20.63-2.68-36.97-16.84-41.88-37.02c-1.43-5.87-1.94-12.1-1.95-18.17
			c-0.11-127.85-0.08-255.7-0.08-383.55c0-1.69,0-3.38,0-5.09c-10.59,0-20.65,0-31.04,0c0,1.93,0,3.66,0,5.38
			c0,126.98,0,253.95,0,380.93c0,1.62,0.02,3.25-0.01,4.87c-0.56,24.14-12.19,41.76-33.01,49.63
			C264.27,1381.63,259.74,1382.53,255.33,1383.75z"/>
		<path d="M325,0c5.75,0.99,11.54,1.74,17.23,3c45.46,10.07,80.46,48.62,86.28,94.93c6.88,54.67-25.52,105.65-77.63,122.15
			c-64.42,20.4-132.27-20.58-144.42-87.23c-10.06-55.2,22.1-109.78,75.15-126.9c8.11-2.62,16.76-3.58,25.16-5.32
			c0.84-0.17,1.66-0.42,2.49-0.63C314.51,0,319.76,0,325,0z"/>
	</g>
</g>
</svg>
